<?xml version="1.0" encoding="UTF-8" standalone="no"?>
<!DOCTYPE svg PUBLIC "-//W3C//DTD SVG 1.1//EN"
 "http://www.w3.org/Graphics/SVG/1.1/DTD/svg11.dtd">
<!-- Generated by graphviz version 2.36.0 (20140111.2315)
 -->
<!-- Title: simple Pages: 1 -->
<svg width="500pt" height="224pt"
 viewBox="0.00 0.00 500.00 224.00" xmlns="http://www.w3.org/2000/svg" xmlns:xlink="http://www.w3.org/1999/xlink">
<g id="graph0" class="graph" transform="scale(1 1) rotate(0) translate(4 220)">
<title>simple</title>
<polygon fill="white" stroke="none" points="-4,4 -4,-220 496,-220 496,4 -4,4"/>
<!-- 0 &#45; Gain\nint a -->
<g id="node1" class="node"><title>0 &#45; Gain\nint a</title>
<ellipse fill="lightblue" stroke="black" cx="43" cy="-189" rx="43.263" ry="26.7407"/>
<text text-anchor="middle" x="43" y="-192.8" font-family="Times,serif" font-size="14.00">0 &#45; Gain</text>
<text text-anchor="middle" x="43" y="-177.8" font-family="Times,serif" font-size="14.00">int a</text>
</g>
<!-- 3 &#45; Operator\n&gt; -->
<g id="node4" class="node"><title>3 &#45; Operator\n&gt;</title>
<ellipse fill="lightblue" stroke="black" cx="164" cy="-99" rx="58.5343" ry="26.7407"/>
<text text-anchor="middle" x="164" y="-102.8" font-family="Times,serif" font-size="14.00">3 &#45; Operator</text>
<text text-anchor="middle" x="164" y="-87.8" font-family="Times,serif" font-size="14.00">&gt;</text>
</g>
<!-- 0 &#45; Gain\nint a&#45;&gt;3 &#45; Operator\n&gt; -->
<g id="edge1" class="edge"><title>0 &#45; Gain\nint a&#45;&gt;3 &#45; Operator\n&gt;</title>
<path fill="none" stroke="black" d="M70.4568,-168.031C86.6355,-156.265 107.362,-141.191 125.192,-128.224"/>
<polygon fill="black" stroke="black" points="127.65,-130.764 133.679,-122.052 123.533,-125.103 127.65,-130.764"/>
</g>
<!-- 1 &#45; Constant\n100 -->
<g id="node2" class="node"><title>1 &#45; Constant\n100</title>
<ellipse fill="lightblue" stroke="black" cx="299" cy="-189" rx="58.5343" ry="26.7407"/>
<text text-anchor="middle" x="299" y="-192.8" font-family="Times,serif" font-size="14.00">1 &#45; Constant</text>
<text text-anchor="middle" x="299" y="-177.8" font-family="Times,serif" font-size="14.00">100</text>
</g>
<!-- 5 &#45; Operator\n= -->
<g id="node6" class="node"><title>5 &#45; Operator\n=</title>
<ellipse fill="lightblue" stroke="black" cx="299" cy="-99" rx="58.5343" ry="26.7407"/>
<text text-anchor="middle" x="299" y="-102.8" font-family="Times,serif" font-size="14.00">5 &#45; Operator</text>
<text text-anchor="middle" x="299" y="-87.8" font-family="Times,serif" font-size="14.00">=</text>
</g>
<!-- 1 &#45; Constant\n100&#45;&gt;5 &#45; Operator\n= -->
<g id="edge3" class="edge"><title>1 &#45; Constant\n100&#45;&gt;5 &#45; Operator\n=</title>
<path fill="none" stroke="black" d="M299,-162.073C299,-153.999 299,-144.943 299,-136.296"/>
<polygon fill="black" stroke="black" points="302.5,-136.046 299,-126.046 295.5,-136.046 302.5,-136.046"/>
</g>
<!-- 2 &#45; Constant\n50 -->
<g id="node3" class="node"><title>2 &#45; Constant\n50</title>
<ellipse fill="lightblue" stroke="black" cx="164" cy="-189" rx="58.5343" ry="26.7407"/>
<text text-anchor="middle" x="164" y="-192.8" font-family="Times,serif" font-size="14.00">2 &#45; Constant</text>
<text text-anchor="middle" x="164" y="-177.8" font-family="Times,serif" font-size="14.00">50</text>
</g>
<!-- 2 &#45; Constant\n50&#45;&gt;3 &#45; Operator\n&gt; -->
<g id="edge2" class="edge"><title>2 &#45; Constant\n50&#45;&gt;3 &#45; Operator\n&gt;</title>
<path fill="none" stroke="black" d="M164,-162.073C164,-153.999 164,-144.943 164,-136.296"/>
<polygon fill="black" stroke="black" points="167.5,-136.046 164,-126.046 160.5,-136.046 167.5,-136.046"/>
</g>
<!-- 6 &#45; Switch -->
<g id="node7" class="node"><title>6 &#45; Switch</title>
<ellipse fill="lightblue" stroke="black" cx="231" cy="-18" rx="47.169" ry="18"/>
<text text-anchor="middle" x="231" y="-14.3" font-family="Times,serif" font-size="14.00">6 &#45; Switch</text>
</g>
<!-- 3 &#45; Operator\n&gt;&#45;&gt;6 &#45; Switch -->
<g id="edge5" class="edge"><title>3 &#45; Operator\n&gt;&#45;&gt;6 &#45; Switch</title>
<path fill="none" stroke="black" d="M184.832,-73.437C192.995,-63.8119 202.335,-52.7993 210.469,-43.2088"/>
<polygon fill="black" stroke="black" points="213.166,-45.4394 216.965,-35.549 207.827,-40.9117 213.166,-45.4394"/>
</g>
<!-- 4 &#45; Constant\n10 -->
<g id="node5" class="node"><title>4 &#45; Constant\n10</title>
<ellipse fill="lightblue" stroke="black" cx="434" cy="-189" rx="58.5343" ry="26.7407"/>
<text text-anchor="middle" x="434" y="-192.8" font-family="Times,serif" font-size="14.00">4 &#45; Constant</text>
<text text-anchor="middle" x="434" y="-177.8" font-family="Times,serif" font-size="14.00">10</text>
</g>
<!-- 4 &#45; Constant\n10&#45;&gt;5 &#45; Operator\n= -->
<g id="edge4" class="edge"><title>4 &#45; Constant\n10&#45;&gt;5 &#45; Operator\n=</title>
<path fill="none" stroke="black" d="M401.32,-166.698C382.967,-154.734 359.884,-139.687 340.29,-126.915"/>
<polygon fill="black" stroke="black" points="342.135,-123.94 331.847,-121.411 338.313,-129.804 342.135,-123.94"/>
</g>
<!-- 5 &#45; Operator\n=&#45;&gt;6 &#45; Switch -->
<g id="edge6" class="edge"><title>5 &#45; Operator\n=&#45;&gt;6 &#45; Switch</title>
<path fill="none" stroke="black" d="M278.228,-73.8681C269.806,-64.084 260.102,-52.8094 251.688,-43.0351"/>
<polygon fill="black" stroke="black" points="254.158,-40.5389 244.981,-35.2432 248.853,-45.1055 254.158,-40.5389"/>
</g>
</g>
</svg>
