<?xml version="1.0" encoding="UTF-8" standalone="no"?>
<!DOCTYPE svg PUBLIC "-//W3C//DTD SVG 1.1//EN"
 "http://www.w3.org/Graphics/SVG/1.1/DTD/svg11.dtd">
<!-- Generated by graphviz version 2.36.0 (20140111.2315)
 -->
<!-- Title: simple Pages: 1 -->
<svg width="529pt" height="332pt"
 viewBox="0.00 0.00 529.00 332.00" xmlns="http://www.w3.org/2000/svg" xmlns:xlink="http://www.w3.org/1999/xlink">
<g id="graph0" class="graph" transform="scale(1 1) rotate(0) translate(4 328)">
<title>simple</title>
<polygon fill="white" stroke="none" points="-4,4 -4,-328 525,-328 525,4 -4,4"/>
<!-- 0 &#45; Param\nint a -->
<g id="node1" class="node"><title>0 &#45; Param\nint a</title>
<ellipse fill="lightblue" stroke="black" cx="189" cy="-297" rx="50.3073" ry="26.7407"/>
<text text-anchor="middle" x="189" y="-300.8" font-family="Times,serif" font-size="14.00">0 &#45; Param</text>
<text text-anchor="middle" x="189" y="-285.8" font-family="Times,serif" font-size="14.00">int a</text>
</g>
<!-- 3 &#45; Operator\n&gt; -->
<g id="node4" class="node"><title>3 &#45; Operator\n&gt;</title>
<ellipse fill="lightblue" stroke="black" cx="58" cy="-207" rx="58.5343" ry="26.7407"/>
<text text-anchor="middle" x="58" y="-210.8" font-family="Times,serif" font-size="14.00">3 &#45; Operator</text>
<text text-anchor="middle" x="58" y="-195.8" font-family="Times,serif" font-size="14.00">&gt;</text>
</g>
<!-- 0 &#45; Param\nint a&#45;&gt;3 &#45; Operator\n&gt; -->
<g id="edge1" class="edge"><title>0 &#45; Param\nint a&#45;&gt;3 &#45; Operator\n&gt;</title>
<path fill="none" stroke="black" d="M158.617,-275.59C140.708,-263.56 117.827,-248.189 98.4109,-235.146"/>
<polygon fill="black" stroke="black" points="100.299,-232.198 90.0462,-229.527 96.3955,-238.009 100.299,-232.198"/>
</g>
<!-- 6 &#45; Variable\nmain a -->
<g id="node7" class="node"><title>6 &#45; Variable\nmain a</title>
<ellipse fill="lightblue" stroke="black" cx="193" cy="-207" rx="57.4743" ry="26.7407"/>
<text text-anchor="middle" x="193" y="-210.8" font-family="Times,serif" font-size="14.00">6 &#45; Variable</text>
<text text-anchor="middle" x="193" y="-195.8" font-family="Times,serif" font-size="14.00">main a</text>
</g>
<!-- 0 &#45; Param\nint a&#45;&gt;6 &#45; Variable\nmain a -->
<g id="edge6" class="edge"><title>0 &#45; Param\nint a&#45;&gt;6 &#45; Variable\nmain a</title>
<path fill="none" stroke="black" d="M190.178,-270.073C190.545,-261.999 190.957,-252.943 191.35,-244.296"/>
<polygon fill="black" stroke="black" points="194.858,-244.194 191.816,-234.046 187.866,-243.876 194.858,-244.194"/>
</g>
<!-- 1 &#45; Constant\n1000 -->
<g id="node2" class="node"><title>1 &#45; Constant\n1000</title>
<ellipse fill="lightblue" stroke="black" cx="328" cy="-207" rx="58.5343" ry="26.7407"/>
<text text-anchor="middle" x="328" y="-210.8" font-family="Times,serif" font-size="14.00">1 &#45; Constant</text>
<text text-anchor="middle" x="328" y="-195.8" font-family="Times,serif" font-size="14.00">1000</text>
</g>
<!-- 5 &#45; Variable Switch\nVariable is b -->
<g id="node6" class="node"><title>5 &#45; Variable Switch\nVariable is b</title>
<ellipse fill="lightblue" stroke="black" cx="328" cy="-117" rx="86.4614" ry="26.7407"/>
<text text-anchor="middle" x="328" y="-120.8" font-family="Times,serif" font-size="14.00">5 &#45; Variable Switch</text>
<text text-anchor="middle" x="328" y="-105.8" font-family="Times,serif" font-size="14.00">Variable is b</text>
</g>
<!-- 1 &#45; Constant\n1000&#45;&gt;5 &#45; Variable Switch\nVariable is b -->
<g id="edge4" class="edge"><title>1 &#45; Constant\n1000&#45;&gt;5 &#45; Variable Switch\nVariable is b</title>
<path fill="none" stroke="black" d="M328,-180.073C328,-171.999 328,-162.943 328,-154.296"/>
<polygon fill="black" stroke="black" points="331.5,-154.046 328,-144.046 324.5,-154.046 331.5,-154.046"/>
</g>
<!-- 2 &#45; Constant\n50 -->
<g id="node3" class="node"><title>2 &#45; Constant\n50</title>
<ellipse fill="lightblue" stroke="black" cx="58" cy="-297" rx="58.5343" ry="26.7407"/>
<text text-anchor="middle" x="58" y="-300.8" font-family="Times,serif" font-size="14.00">2 &#45; Constant</text>
<text text-anchor="middle" x="58" y="-285.8" font-family="Times,serif" font-size="14.00">50</text>
</g>
<!-- 2 &#45; Constant\n50&#45;&gt;3 &#45; Operator\n&gt; -->
<g id="edge2" class="edge"><title>2 &#45; Constant\n50&#45;&gt;3 &#45; Operator\n&gt;</title>
<path fill="none" stroke="black" d="M58,-270.073C58,-261.999 58,-252.943 58,-244.296"/>
<polygon fill="black" stroke="black" points="61.5001,-244.046 58,-234.046 54.5001,-244.046 61.5001,-244.046"/>
</g>
<!-- 3 &#45; Operator\n&gt;&#45;&gt;5 &#45; Variable Switch\nVariable is b -->
<g id="edge3" class="edge"><title>3 &#45; Operator\n&gt;&#45;&gt;5 &#45; Variable Switch\nVariable is b</title>
<path fill="none" stroke="black" d="M101.372,-188.917C109.519,-185.85 117.993,-182.756 126,-180 168.849,-165.251 217.381,-150.3 256.133,-138.775"/>
<polygon fill="black" stroke="black" points="257.171,-142.118 265.765,-135.921 255.183,-135.406 257.171,-142.118"/>
</g>
<!-- 4 &#45; Constant\n100 -->
<g id="node5" class="node"><title>4 &#45; Constant\n100</title>
<ellipse fill="lightblue" stroke="black" cx="463" cy="-207" rx="58.5343" ry="26.7407"/>
<text text-anchor="middle" x="463" y="-210.8" font-family="Times,serif" font-size="14.00">4 &#45; Constant</text>
<text text-anchor="middle" x="463" y="-195.8" font-family="Times,serif" font-size="14.00">100</text>
</g>
<!-- 4 &#45; Constant\n100&#45;&gt;5 &#45; Variable Switch\nVariable is b -->
<g id="edge5" class="edge"><title>4 &#45; Constant\n100&#45;&gt;5 &#45; Variable Switch\nVariable is b</title>
<path fill="none" stroke="black" d="M430.32,-184.698C412.997,-173.405 391.459,-159.366 372.619,-147.085"/>
<polygon fill="black" stroke="black" points="374.466,-144.111 364.178,-141.582 370.644,-149.975 374.466,-144.111"/>
</g>
<!-- 7 &#45; Variable\nmain b -->
<g id="node8" class="node"><title>7 &#45; Variable\nmain b</title>
<ellipse fill="lightblue" stroke="black" cx="328" cy="-27" rx="57.4743" ry="26.7407"/>
<text text-anchor="middle" x="328" y="-30.8" font-family="Times,serif" font-size="14.00">7 &#45; Variable</text>
<text text-anchor="middle" x="328" y="-15.8" font-family="Times,serif" font-size="14.00">main b</text>
</g>
<!-- 5 &#45; Variable Switch\nVariable is b&#45;&gt;7 &#45; Variable\nmain b -->
<g id="edge7" class="edge"><title>5 &#45; Variable Switch\nVariable is b&#45;&gt;7 &#45; Variable\nmain b</title>
<path fill="none" stroke="black" d="M328,-90.0731C328,-81.9993 328,-72.9428 328,-64.2961"/>
<polygon fill="black" stroke="black" points="331.5,-64.0457 328,-54.0457 324.5,-64.0458 331.5,-64.0457"/>
</g>
</g>
</svg>
