<?xml version="1.0" encoding="UTF-8" standalone="no"?>
<!DOCTYPE svg PUBLIC "-//W3C//DTD SVG 1.1//EN"
 "http://www.w3.org/Graphics/SVG/1.1/DTD/svg11.dtd">
<!-- Generated by graphviz version 2.36.0 (20140111.2315)
 -->
<!-- Title: simple Pages: 1 -->
<svg width="1929pt" height="620pt"
 viewBox="0.00 0.00 1929.00 620.00" xmlns="http://www.w3.org/2000/svg" xmlns:xlink="http://www.w3.org/1999/xlink">
<g id="graph0" class="graph" transform="scale(1 1) rotate(0) translate(4 616)">
<title>simple</title>
<polygon fill="white" stroke="none" points="-4,4 -4,-616 1925,-616 1925,4 -4,4"/>
<!-- 0 &#45; CursorKind.TYPEDEF_DECL -->
<g id="node1" class="node"><title>0 &#45; CursorKind.TYPEDEF_DECL</title>
<ellipse fill="lightblue" stroke="black" cx="132" cy="-441" rx="132.382" ry="18"/>
<text text-anchor="middle" x="132" y="-437.3" font-family="Times,serif" font-size="14.00">0 &#45; CursorKind.TYPEDEF_DECL</text>
</g>
<!-- 1 &#45; CursorKind.TYPEDEF_DECL -->
<g id="node2" class="node"><title>1 &#45; CursorKind.TYPEDEF_DECL</title>
<ellipse fill="lightblue" stroke="black" cx="415" cy="-441" rx="132.382" ry="18"/>
<text text-anchor="middle" x="415" y="-437.3" font-family="Times,serif" font-size="14.00">1 &#45; CursorKind.TYPEDEF_DECL</text>
</g>
<!-- 2 &#45; CursorKind.TYPE_REF -->
<g id="node3" class="node"><title>2 &#45; CursorKind.TYPE_REF</title>
<ellipse fill="lightblue" stroke="black" cx="686" cy="-360" rx="109.286" ry="18"/>
<text text-anchor="middle" x="686" y="-356.3" font-family="Times,serif" font-size="14.00">2 &#45; CursorKind.TYPE_REF</text>
</g>
<!-- 3 &#45; CursorKind.TYPEDEF_DECL -->
<g id="node4" class="node"><title>3 &#45; CursorKind.TYPEDEF_DECL</title>
<ellipse fill="lightblue" stroke="black" cx="698" cy="-441" rx="132.382" ry="18"/>
<text text-anchor="middle" x="698" y="-437.3" font-family="Times,serif" font-size="14.00">3 &#45; CursorKind.TYPEDEF_DECL</text>
</g>
<!-- 3 &#45; CursorKind.TYPEDEF_DECL&#45;&gt;2 &#45; CursorKind.TYPE_REF -->
<g id="edge1" class="edge"><title>3 &#45; CursorKind.TYPEDEF_DECL&#45;&gt;2 &#45; CursorKind.TYPE_REF</title>
<path fill="none" stroke="black" d="M695.396,-422.858C693.855,-412.713 691.868,-399.634 690.119,-388.117"/>
<polygon fill="black" stroke="black" points="693.561,-387.469 688.599,-378.108 686.64,-388.521 693.561,-387.469"/>
</g>
<!-- 4 &#45; CursorKind.PARM_DECL -->
<g id="node5" class="node"><title>4 &#45; CursorKind.PARM_DECL</title>
<ellipse fill="lightblue" stroke="black" cx="933" cy="-360" rx="119.384" ry="18"/>
<text text-anchor="middle" x="933" y="-356.3" font-family="Times,serif" font-size="14.00">4 &#45; CursorKind.PARM_DECL</text>
</g>
<!-- 5 &#45; Constant\n1000 -->
<g id="node6" class="node"><title>5 &#45; Constant\n1000</title>
<ellipse fill="lightblue" stroke="black" cx="1063" cy="-117" rx="58.5343" ry="26.7407"/>
<text text-anchor="middle" x="1063" y="-120.8" font-family="Times,serif" font-size="14.00">5 &#45; Constant</text>
<text text-anchor="middle" x="1063" y="-105.8" font-family="Times,serif" font-size="14.00">1000</text>
</g>
<!-- 6 &#45; CursorKind.VAR_DECL -->
<g id="node7" class="node"><title>6 &#45; CursorKind.VAR_DECL</title>
<ellipse fill="lightblue" stroke="black" cx="1070" cy="-207" rx="112.16" ry="18"/>
<text text-anchor="middle" x="1070" y="-203.3" font-family="Times,serif" font-size="14.00">6 &#45; CursorKind.VAR_DECL</text>
</g>
<!-- 6 &#45; CursorKind.VAR_DECL&#45;&gt;5 &#45; Constant\n1000 -->
<g id="edge2" class="edge"><title>6 &#45; CursorKind.VAR_DECL&#45;&gt;5 &#45; Constant\n1000</title>
<path fill="none" stroke="black" d="M1068.62,-188.614C1067.83,-178.774 1066.83,-166.089 1065.88,-154.191"/>
<polygon fill="black" stroke="black" points="1069.35,-153.72 1065.07,-144.029 1062.37,-154.275 1069.35,-153.72"/>
</g>
<!-- 7 &#45; CursorKind.DECL_STMT -->
<g id="node8" class="node"><title>7 &#45; CursorKind.DECL_STMT</title>
<ellipse fill="lightblue" stroke="black" cx="1099" cy="-288" rx="117.935" ry="18"/>
<text text-anchor="middle" x="1099" y="-284.3" font-family="Times,serif" font-size="14.00">7 &#45; CursorKind.DECL_STMT</text>
</g>
<!-- 7 &#45; CursorKind.DECL_STMT&#45;&gt;6 &#45; CursorKind.VAR_DECL -->
<g id="edge3" class="edge"><title>7 &#45; CursorKind.DECL_STMT&#45;&gt;6 &#45; CursorKind.VAR_DECL</title>
<path fill="none" stroke="black" d="M1092.71,-269.858C1088.95,-259.609 1084.08,-246.366 1079.83,-234.765"/>
<polygon fill="black" stroke="black" points="1083.01,-233.29 1076.28,-225.108 1076.44,-235.702 1083.01,-233.29"/>
</g>
<!-- 8 &#45; CursorKind.DECL_REF_EXPR -->
<g id="node9" class="node"><title>8 &#45; CursorKind.DECL_REF_EXPR</title>
<ellipse fill="lightblue" stroke="black" cx="1285" cy="-27" rx="137.207" ry="18"/>
<text text-anchor="middle" x="1285" y="-23.3" font-family="Times,serif" font-size="14.00">8 &#45; CursorKind.DECL_REF_EXPR</text>
</g>
<!-- 9 &#45; CursorKind.UNEXPOSED_EXPR -->
<g id="node10" class="node"><title>9 &#45; CursorKind.UNEXPOSED_EXPR</title>
<ellipse fill="lightblue" stroke="black" cx="1285" cy="-117" rx="145.38" ry="18"/>
<text text-anchor="middle" x="1285" y="-113.3" font-family="Times,serif" font-size="14.00">9 &#45; CursorKind.UNEXPOSED_EXPR</text>
</g>
<!-- 9 &#45; CursorKind.UNEXPOSED_EXPR&#45;&gt;8 &#45; CursorKind.DECL_REF_EXPR -->
<g id="edge4" class="edge"><title>9 &#45; CursorKind.UNEXPOSED_EXPR&#45;&gt;8 &#45; CursorKind.DECL_REF_EXPR</title>
<path fill="none" stroke="black" d="M1285,-98.614C1285,-86.2403 1285,-69.3686 1285,-55.2198"/>
<polygon fill="black" stroke="black" points="1288.5,-55.0504 1285,-45.0504 1281.5,-55.0504 1288.5,-55.0504"/>
</g>
<!-- 10 &#45; Constant\n50 -->
<g id="node11" class="node"><title>10 &#45; Constant\n50</title>
<ellipse fill="lightblue" stroke="black" cx="1512" cy="-117" rx="63.459" ry="26.7407"/>
<text text-anchor="middle" x="1512" y="-120.8" font-family="Times,serif" font-size="14.00">10 &#45; Constant</text>
<text text-anchor="middle" x="1512" y="-105.8" font-family="Times,serif" font-size="14.00">50</text>
</g>
<!-- 11 &#45; Binary Operator\n&gt; -->
<g id="node12" class="node"><title>11 &#45; Binary Operator\n&gt;</title>
<ellipse fill="lightblue" stroke="black" cx="1402" cy="-207" rx="92.4462" ry="26.7407"/>
<text text-anchor="middle" x="1402" y="-210.8" font-family="Times,serif" font-size="14.00">11 &#45; Binary Operator</text>
<text text-anchor="middle" x="1402" y="-195.8" font-family="Times,serif" font-size="14.00">&gt;</text>
</g>
<!-- 11 &#45; Binary Operator\n&gt;&#45;&gt;9 &#45; CursorKind.UNEXPOSED_EXPR -->
<g id="edge5" class="edge"><title>11 &#45; Binary Operator\n&gt;&#45;&gt;9 &#45; CursorKind.UNEXPOSED_EXPR</title>
<path fill="none" stroke="black" d="M1369.72,-181.721C1352.9,-169.071 1332.44,-153.678 1315.83,-141.191"/>
<polygon fill="black" stroke="black" points="1317.64,-138.17 1307.54,-134.956 1313.43,-143.764 1317.64,-138.17"/>
</g>
<!-- 11 &#45; Binary Operator\n&gt;&#45;&gt;10 &#45; Constant\n50 -->
<g id="edge6" class="edge"><title>11 &#45; Binary Operator\n&gt;&#45;&gt;10 &#45; Constant\n50</title>
<path fill="none" stroke="black" d="M1432.64,-181.487C1445.82,-170.944 1461.34,-158.53 1475.14,-147.489"/>
<polygon fill="black" stroke="black" points="1477.41,-150.151 1483.04,-141.171 1473.04,-144.685 1477.41,-150.151"/>
</g>
<!-- 12 &#45; CursorKind.DECL_REF_EXPR -->
<g id="node13" class="node"><title>12 &#45; CursorKind.DECL_REF_EXPR</title>
<ellipse fill="lightblue" stroke="black" cx="1634" cy="-27" rx="141.531" ry="18"/>
<text text-anchor="middle" x="1634" y="-23.3" font-family="Times,serif" font-size="14.00">12 &#45; CursorKind.DECL_REF_EXPR</text>
</g>
<!-- 13 &#45; Constant\n100 -->
<g id="node14" class="node"><title>13 &#45; Constant\n100</title>
<ellipse fill="lightblue" stroke="black" cx="1857" cy="-27" rx="63.459" ry="26.7407"/>
<text text-anchor="middle" x="1857" y="-30.8" font-family="Times,serif" font-size="14.00">13 &#45; Constant</text>
<text text-anchor="middle" x="1857" y="-15.8" font-family="Times,serif" font-size="14.00">100</text>
</g>
<!-- 14 &#45; Binary Operator\n= -->
<g id="node15" class="node"><title>14 &#45; Binary Operator\n=</title>
<ellipse fill="lightblue" stroke="black" cx="1686" cy="-117" rx="92.4462" ry="26.7407"/>
<text text-anchor="middle" x="1686" y="-120.8" font-family="Times,serif" font-size="14.00">14 &#45; Binary Operator</text>
<text text-anchor="middle" x="1686" y="-105.8" font-family="Times,serif" font-size="14.00">=</text>
</g>
<!-- 14 &#45; Binary Operator\n=&#45;&gt;12 &#45; CursorKind.DECL_REF_EXPR -->
<g id="edge7" class="edge"><title>14 &#45; Binary Operator\n=&#45;&gt;12 &#45; CursorKind.DECL_REF_EXPR</title>
<path fill="none" stroke="black" d="M1670.68,-90.0731C1663.92,-78.6317 1655.99,-65.2171 1649.24,-53.7915"/>
<polygon fill="black" stroke="black" points="1652.22,-51.9591 1644.12,-45.1304 1646.2,-55.5203 1652.22,-51.9591"/>
</g>
<!-- 14 &#45; Binary Operator\n=&#45;&gt;13 &#45; Constant\n100 -->
<g id="edge8" class="edge"><title>14 &#45; Binary Operator\n=&#45;&gt;13 &#45; Constant\n100</title>
<path fill="none" stroke="black" d="M1730.04,-93.3378C1754.08,-80.9649 1783.89,-65.6219 1808.59,-52.9137"/>
<polygon fill="black" stroke="black" points="1810.49,-55.8718 1817.78,-48.1838 1807.29,-49.6476 1810.49,-55.8718"/>
</g>
<!-- 15 &#45; CursorKind.COMPOUND_STMT -->
<g id="node16" class="node"><title>15 &#45; CursorKind.COMPOUND_STMT</title>
<ellipse fill="lightblue" stroke="black" cx="1678" cy="-207" rx="150.205" ry="18"/>
<text text-anchor="middle" x="1678" y="-203.3" font-family="Times,serif" font-size="14.00">15 &#45; CursorKind.COMPOUND_STMT</text>
</g>
<!-- 15 &#45; CursorKind.COMPOUND_STMT&#45;&gt;14 &#45; Binary Operator\n= -->
<g id="edge9" class="edge"><title>15 &#45; CursorKind.COMPOUND_STMT&#45;&gt;14 &#45; Binary Operator\n=</title>
<path fill="none" stroke="black" d="M1679.58,-188.614C1680.48,-178.774 1681.63,-166.089 1682.71,-154.191"/>
<polygon fill="black" stroke="black" points="1686.21,-154.305 1683.63,-144.029 1679.24,-153.671 1686.21,-154.305"/>
</g>
<!-- 16 &#45; CursorKind.IF_STMT -->
<g id="node17" class="node"><title>16 &#45; CursorKind.IF_STMT</title>
<ellipse fill="lightblue" stroke="black" cx="1402" cy="-288" rx="107.361" ry="18"/>
<text text-anchor="middle" x="1402" y="-284.3" font-family="Times,serif" font-size="14.00">16 &#45; CursorKind.IF_STMT</text>
</g>
<!-- 16 &#45; CursorKind.IF_STMT&#45;&gt;11 &#45; Binary Operator\n&gt; -->
<g id="edge10" class="edge"><title>16 &#45; CursorKind.IF_STMT&#45;&gt;11 &#45; Binary Operator\n&gt;</title>
<path fill="none" stroke="black" d="M1402,-269.858C1402,-262.356 1402,-253.25 1402,-244.358"/>
<polygon fill="black" stroke="black" points="1405.5,-244.126 1402,-234.126 1398.5,-244.126 1405.5,-244.126"/>
</g>
<!-- 16 &#45; CursorKind.IF_STMT&#45;&gt;15 &#45; CursorKind.COMPOUND_STMT -->
<g id="edge11" class="edge"><title>16 &#45; CursorKind.IF_STMT&#45;&gt;15 &#45; CursorKind.COMPOUND_STMT</title>
<path fill="none" stroke="black" d="M1453.91,-272.141C1498.91,-259.262 1564.23,-240.564 1612.75,-226.675"/>
<polygon fill="black" stroke="black" points="1613.88,-229.994 1622.53,-223.877 1611.95,-223.264 1613.88,-229.994"/>
</g>
<!-- 17 &#45; CursorKind.COMPOUND_STMT -->
<g id="node18" class="node"><title>17 &#45; CursorKind.COMPOUND_STMT</title>
<ellipse fill="lightblue" stroke="black" cx="1221" cy="-360" rx="150.205" ry="18"/>
<text text-anchor="middle" x="1221" y="-356.3" font-family="Times,serif" font-size="14.00">17 &#45; CursorKind.COMPOUND_STMT</text>
</g>
<!-- 17 &#45; CursorKind.COMPOUND_STMT&#45;&gt;7 &#45; CursorKind.DECL_STMT -->
<g id="edge12" class="edge"><title>17 &#45; CursorKind.COMPOUND_STMT&#45;&gt;7 &#45; CursorKind.DECL_STMT</title>
<path fill="none" stroke="black" d="M1191.78,-342.233C1175.33,-332.796 1154.61,-320.905 1136.92,-310.756"/>
<polygon fill="black" stroke="black" points="1138.4,-307.571 1127.98,-305.63 1134.92,-313.642 1138.4,-307.571"/>
</g>
<!-- 17 &#45; CursorKind.COMPOUND_STMT&#45;&gt;16 &#45; CursorKind.IF_STMT -->
<g id="edge13" class="edge"><title>17 &#45; CursorKind.COMPOUND_STMT&#45;&gt;16 &#45; CursorKind.IF_STMT</title>
<path fill="none" stroke="black" d="M1263.44,-342.588C1289.89,-332.358 1324.06,-319.144 1351.84,-308.397"/>
<polygon fill="black" stroke="black" points="1353.32,-311.579 1361.38,-304.708 1350.8,-305.05 1353.32,-311.579"/>
</g>
<!-- 18 &#45; Subsystem\nint main -->
<g id="node19" class="node"><title>18 &#45; Subsystem\nint main</title>
<ellipse fill="lightblue" stroke="black" cx="933" cy="-441" rx="71.127" ry="26.7407"/>
<text text-anchor="middle" x="933" y="-444.8" font-family="Times,serif" font-size="14.00">18 &#45; Subsystem</text>
<text text-anchor="middle" x="933" y="-429.8" font-family="Times,serif" font-size="14.00">int main</text>
</g>
<!-- 18 &#45; Subsystem\nint main&#45;&gt;4 &#45; CursorKind.PARM_DECL -->
<g id="edge14" class="edge"><title>18 &#45; Subsystem\nint main&#45;&gt;4 &#45; CursorKind.PARM_DECL</title>
<path fill="none" stroke="black" d="M933,-413.694C933,-405.58 933,-396.626 933,-388.438"/>
<polygon fill="black" stroke="black" points="936.5,-388.248 933,-378.248 929.5,-388.248 936.5,-388.248"/>
</g>
<!-- 18 &#45; Subsystem\nint main&#45;&gt;17 &#45; CursorKind.COMPOUND_STMT -->
<g id="edge15" class="edge"><title>18 &#45; Subsystem\nint main&#45;&gt;17 &#45; CursorKind.COMPOUND_STMT</title>
<path fill="none" stroke="black" d="M989.556,-424.486C1036.7,-411.553 1103.98,-393.099 1153.86,-379.418"/>
<polygon fill="black" stroke="black" points="1154.87,-382.769 1163.59,-376.748 1153.02,-376.018 1154.87,-382.769"/>
</g>
<!-- 19 &#45; CursorKind.TRANSLATION_UNIT -->
<g id="node20" class="node"><title>19 &#45; CursorKind.TRANSLATION_UNIT</title>
<ellipse fill="lightblue" stroke="black" cx="556" cy="-522" rx="157.404" ry="18"/>
<text text-anchor="middle" x="556" y="-518.3" font-family="Times,serif" font-size="14.00">19 &#45; CursorKind.TRANSLATION_UNIT</text>
</g>
<!-- 19 &#45; CursorKind.TRANSLATION_UNIT&#45;&gt;0 &#45; CursorKind.TYPEDEF_DECL -->
<g id="edge16" class="edge"><title>19 &#45; CursorKind.TRANSLATION_UNIT&#45;&gt;0 &#45; CursorKind.TYPEDEF_DECL</title>
<path fill="none" stroke="black" d="M477.243,-506.326C403.212,-492.532 292.727,-471.947 216.792,-457.798"/>
<polygon fill="black" stroke="black" points="217.251,-454.324 206.779,-455.933 215.969,-461.205 217.251,-454.324"/>
</g>
<!-- 19 &#45; CursorKind.TRANSLATION_UNIT&#45;&gt;1 &#45; CursorKind.TYPEDEF_DECL -->
<g id="edge17" class="edge"><title>19 &#45; CursorKind.TRANSLATION_UNIT&#45;&gt;1 &#45; CursorKind.TYPEDEF_DECL</title>
<path fill="none" stroke="black" d="M526.098,-504.246C504.973,-492.411 476.473,-476.442 453.628,-463.642"/>
<polygon fill="black" stroke="black" points="455.294,-460.564 444.859,-458.73 451.873,-466.671 455.294,-460.564"/>
</g>
<!-- 19 &#45; CursorKind.TRANSLATION_UNIT&#45;&gt;3 &#45; CursorKind.TYPEDEF_DECL -->
<g id="edge18" class="edge"><title>19 &#45; CursorKind.TRANSLATION_UNIT&#45;&gt;3 &#45; CursorKind.TYPEDEF_DECL</title>
<path fill="none" stroke="black" d="M586.115,-504.246C607.388,-492.411 636.091,-476.442 659.098,-463.642"/>
<polygon fill="black" stroke="black" points="660.892,-466.65 667.929,-458.73 657.489,-460.533 660.892,-466.65"/>
</g>
<!-- 19 &#45; CursorKind.TRANSLATION_UNIT&#45;&gt;18 &#45; Subsystem\nint main -->
<g id="edge19" class="edge"><title>19 &#45; CursorKind.TRANSLATION_UNIT&#45;&gt;18 &#45; Subsystem\nint main</title>
<path fill="none" stroke="black" d="M641.843,-506.872C698.153,-497.126 773.257,-483.219 839,-468 848.305,-465.846 858.073,-463.379 867.648,-460.841"/>
<polygon fill="black" stroke="black" points="868.783,-464.161 877.529,-458.182 866.963,-457.401 868.783,-464.161"/>
</g>
<!-- 20 &#45; XML -->
<g id="node21" class="node"><title>20 &#45; XML</title>
<ellipse fill="lightblue" stroke="black" cx="556" cy="-594" rx="47.169" ry="18"/>
<text text-anchor="middle" x="556" y="-590.3" font-family="Times,serif" font-size="14.00">20 &#45; XML</text>
</g>
<!-- 20 &#45; XML&#45;&gt;19 &#45; CursorKind.TRANSLATION_UNIT -->
<g id="edge20" class="edge"><title>20 &#45; XML&#45;&gt;19 &#45; CursorKind.TRANSLATION_UNIT</title>
<path fill="none" stroke="black" d="M556,-575.697C556,-567.983 556,-558.712 556,-550.112"/>
<polygon fill="black" stroke="black" points="559.5,-550.104 556,-540.104 552.5,-550.104 559.5,-550.104"/>
</g>
</g>
</svg>
