<?xml version="1.0" encoding="UTF-8" standalone="no"?>
<!DOCTYPE svg PUBLIC "-//W3C//DTD SVG 1.1//EN"
 "http://www.w3.org/Graphics/SVG/1.1/DTD/svg11.dtd">
<!-- Generated by graphviz version 2.36.0 (20140111.2315)
 -->
<!-- Title: simple Pages: 1 -->
<svg width="378pt" height="242pt"
 viewBox="0.00 0.00 378.00 242.00" xmlns="http://www.w3.org/2000/svg" xmlns:xlink="http://www.w3.org/1999/xlink">
<g id="graph0" class="graph" transform="scale(1 1) rotate(0) translate(4 238)">
<title>simple</title>
<polygon fill="white" stroke="none" points="-4,4 -4,-238 374,-238 374,4 -4,4"/>
<!-- 0 &#45; Param\nint a -->
<g id="node1" class="node"><title>0 &#45; Param\nint a</title>
<ellipse fill="lightblue" stroke="black" cx="50" cy="-207" rx="50.3073" ry="26.7407"/>
<text text-anchor="middle" x="50" y="-210.8" font-family="Times,serif" font-size="14.00">0 &#45; Param</text>
<text text-anchor="middle" x="50" y="-195.8" font-family="Times,serif" font-size="14.00">int a</text>
</g>
<!-- 3 &#45; Operator\n+ -->
<g id="node4" class="node"><title>3 &#45; Operator\n+</title>
<ellipse fill="lightblue" stroke="black" cx="113" cy="-117" rx="58.5343" ry="26.7407"/>
<text text-anchor="middle" x="113" y="-120.8" font-family="Times,serif" font-size="14.00">3 &#45; Operator</text>
<text text-anchor="middle" x="113" y="-105.8" font-family="Times,serif" font-size="14.00">+</text>
</g>
<!-- 0 &#45; Param\nint a&#45;&gt;3 &#45; Operator\n+ -->
<g id="edge1" class="edge"><title>0 &#45; Param\nint a&#45;&gt;3 &#45; Operator\n+</title>
<path fill="none" stroke="black" d="M67.549,-181.487C74.3187,-172.031 82.1658,-161.07 89.4148,-150.944"/>
<polygon fill="black" stroke="black" points="92.3513,-152.855 95.3266,-142.687 86.6596,-148.78 92.3513,-152.855"/>
</g>
<!-- 1 &#45; Constant\n1000 -->
<g id="node2" class="node"><title>1 &#45; Constant\n1000</title>
<ellipse fill="lightblue" stroke="black" cx="312" cy="-207" rx="58.5343" ry="26.7407"/>
<text text-anchor="middle" x="312" y="-210.8" font-family="Times,serif" font-size="14.00">1 &#45; Constant</text>
<text text-anchor="middle" x="312" y="-195.8" font-family="Times,serif" font-size="14.00">1000</text>
</g>
<!-- 2 &#45; Constant\n20 -->
<g id="node3" class="node"><title>2 &#45; Constant\n20</title>
<ellipse fill="lightblue" stroke="black" cx="177" cy="-207" rx="58.5343" ry="26.7407"/>
<text text-anchor="middle" x="177" y="-210.8" font-family="Times,serif" font-size="14.00">2 &#45; Constant</text>
<text text-anchor="middle" x="177" y="-195.8" font-family="Times,serif" font-size="14.00">20</text>
</g>
<!-- 2 &#45; Constant\n20&#45;&gt;3 &#45; Operator\n+ -->
<g id="edge2" class="edge"><title>2 &#45; Constant\n20&#45;&gt;3 &#45; Operator\n+</title>
<path fill="none" stroke="black" d="M158.831,-181.018C152.018,-171.649 144.168,-160.856 136.912,-150.879"/>
<polygon fill="black" stroke="black" points="139.705,-148.769 130.993,-142.74 134.044,-152.886 139.705,-148.769"/>
</g>
<!-- 4 &#45; Variable\nmain b -->
<g id="node5" class="node"><title>4 &#45; Variable\nmain b</title>
<ellipse fill="lightblue" stroke="black" cx="113" cy="-27" rx="57.4743" ry="26.7407"/>
<text text-anchor="middle" x="113" y="-30.8" font-family="Times,serif" font-size="14.00">4 &#45; Variable</text>
<text text-anchor="middle" x="113" y="-15.8" font-family="Times,serif" font-size="14.00">main b</text>
</g>
<!-- 3 &#45; Operator\n+&#45;&gt;4 &#45; Variable\nmain b -->
<g id="edge3" class="edge"><title>3 &#45; Operator\n+&#45;&gt;4 &#45; Variable\nmain b</title>
<path fill="none" stroke="black" d="M113,-90.0731C113,-81.9993 113,-72.9428 113,-64.2961"/>
<polygon fill="black" stroke="black" points="116.5,-64.0457 113,-54.0457 109.5,-64.0458 116.5,-64.0457"/>
</g>
</g>
</svg>
