<?xml version="1.0" encoding="UTF-8" standalone="no"?>
<!DOCTYPE svg PUBLIC "-//W3C//DTD SVG 1.1//EN"
 "http://www.w3.org/Graphics/SVG/1.1/DTD/svg11.dtd">
<!-- Generated by graphviz version 2.36.0 (20140111.2315)
 -->
<!-- Title: simple Pages: 1 -->
<svg width="647pt" height="152pt"
 viewBox="0.00 0.00 647.00 152.00" xmlns="http://www.w3.org/2000/svg" xmlns:xlink="http://www.w3.org/1999/xlink">
<g id="graph0" class="graph" transform="scale(1 1) rotate(0) translate(4 148)">
<title>simple</title>
<polygon fill="white" stroke="none" points="-4,4 -4,-148 643,-148 643,4 -4,4"/>
<!-- 0 &#45; Param\nint a -->
<g id="node1" class="node"><title>0 &#45; Param\nint a</title>
<ellipse fill="lightblue" stroke="black" cx="50" cy="-117" rx="50.3073" ry="26.7407"/>
<text text-anchor="middle" x="50" y="-120.8" font-family="Times,serif" font-size="14.00">0 &#45; Param</text>
<text text-anchor="middle" x="50" y="-105.8" font-family="Times,serif" font-size="14.00">int a</text>
</g>
<!-- 1 &#45; Constant\n1000 -->
<g id="node2" class="node"><title>1 &#45; Constant\n1000</title>
<ellipse fill="lightblue" stroke="black" cx="177" cy="-117" rx="58.5343" ry="26.7407"/>
<text text-anchor="middle" x="177" y="-120.8" font-family="Times,serif" font-size="14.00">1 &#45; Constant</text>
<text text-anchor="middle" x="177" y="-105.8" font-family="Times,serif" font-size="14.00">1000</text>
</g>
<!-- 2 &#45; Constant\n10 -->
<g id="node3" class="node"><title>2 &#45; Constant\n10</title>
<ellipse fill="lightblue" stroke="black" cx="312" cy="-117" rx="58.5343" ry="26.7407"/>
<text text-anchor="middle" x="312" y="-120.8" font-family="Times,serif" font-size="14.00">2 &#45; Constant</text>
<text text-anchor="middle" x="312" y="-105.8" font-family="Times,serif" font-size="14.00">10</text>
</g>
<!-- 4 &#45; Operator\n+ -->
<g id="node5" class="node"><title>4 &#45; Operator\n+</title>
<ellipse fill="lightblue" stroke="black" cx="447" cy="-27" rx="58.5343" ry="26.7407"/>
<text text-anchor="middle" x="447" y="-30.8" font-family="Times,serif" font-size="14.00">4 &#45; Operator</text>
<text text-anchor="middle" x="447" y="-15.8" font-family="Times,serif" font-size="14.00">+</text>
</g>
<!-- 2 &#45; Constant\n10&#45;&gt;4 &#45; Operator\n+ -->
<g id="edge1" class="edge"><title>2 &#45; Constant\n10&#45;&gt;4 &#45; Operator\n+</title>
<path fill="none" stroke="black" d="M344.68,-94.6977C363.033,-82.734 386.116,-67.6874 405.71,-54.9148"/>
<polygon fill="black" stroke="black" points="407.687,-57.8041 414.153,-49.4112 403.865,-51.9399 407.687,-57.8041"/>
</g>
<!-- 3 &#45; Constant\n20 -->
<g id="node4" class="node"><title>3 &#45; Constant\n20</title>
<ellipse fill="lightblue" stroke="black" cx="447" cy="-117" rx="58.5343" ry="26.7407"/>
<text text-anchor="middle" x="447" y="-120.8" font-family="Times,serif" font-size="14.00">3 &#45; Constant</text>
<text text-anchor="middle" x="447" y="-105.8" font-family="Times,serif" font-size="14.00">20</text>
</g>
<!-- 3 &#45; Constant\n20&#45;&gt;4 &#45; Operator\n+ -->
<g id="edge2" class="edge"><title>3 &#45; Constant\n20&#45;&gt;4 &#45; Operator\n+</title>
<path fill="none" stroke="black" d="M447,-90.0731C447,-81.9993 447,-72.9428 447,-64.2961"/>
<polygon fill="black" stroke="black" points="450.5,-64.0457 447,-54.0457 443.5,-64.0458 450.5,-64.0457"/>
</g>
<!-- 5 &#45; Variable\nmain b -->
<g id="node6" class="node"><title>5 &#45; Variable\nmain b</title>
<ellipse fill="lightblue" stroke="black" cx="582" cy="-117" rx="57.4743" ry="26.7407"/>
<text text-anchor="middle" x="582" y="-120.8" font-family="Times,serif" font-size="14.00">5 &#45; Variable</text>
<text text-anchor="middle" x="582" y="-105.8" font-family="Times,serif" font-size="14.00">main b</text>
</g>
<!-- 5 &#45; Variable\nmain b&#45;&gt;4 &#45; Operator\n+ -->
<g id="edge3" class="edge"><title>5 &#45; Variable\nmain b&#45;&gt;4 &#45; Operator\n+</title>
<path fill="none" stroke="black" d="M549.32,-94.6977C530.967,-82.734 507.884,-67.6874 488.29,-54.9148"/>
<polygon fill="black" stroke="black" points="490.135,-51.9399 479.847,-49.4112 486.313,-57.8041 490.135,-51.9399"/>
</g>
</g>
</svg>
