<?xml version="1.0" encoding="UTF-8" standalone="no"?>
<!DOCTYPE svg PUBLIC "-//W3C//DTD SVG 1.1//EN"
 "http://www.w3.org/Graphics/SVG/1.1/DTD/svg11.dtd">
<!-- Generated by graphviz version 2.36.0 (20140111.2315)
 -->
<!-- Title: simple Pages: 1 -->
<svg width="1626pt" height="818pt"
 viewBox="0.00 0.00 1625.81 818.00" xmlns="http://www.w3.org/2000/svg" xmlns:xlink="http://www.w3.org/1999/xlink">
<g id="graph0" class="graph" transform="scale(1 1) rotate(0) translate(4 814)">
<title>simple</title>
<polygon fill="white" stroke="none" points="-4,4 -4,-814 1621.81,-814 1621.81,4 -4,4"/>
<!-- 0 &#45; CursorKind.TYPEDEF_DECL -->
<g id="node1" class="node"><title>0 &#45; CursorKind.TYPEDEF_DECL</title>
<ellipse fill="lightblue" stroke="black" cx="132" cy="-639" rx="132.382" ry="18"/>
<text text-anchor="middle" x="132" y="-635.3" font-family="Times,serif" font-size="14.00">0 &#45; CursorKind.TYPEDEF_DECL</text>
</g>
<!-- 1 &#45; CursorKind.TYPEDEF_DECL -->
<g id="node2" class="node"><title>1 &#45; CursorKind.TYPEDEF_DECL</title>
<ellipse fill="lightblue" stroke="black" cx="415" cy="-639" rx="132.382" ry="18"/>
<text text-anchor="middle" x="415" y="-635.3" font-family="Times,serif" font-size="14.00">1 &#45; CursorKind.TYPEDEF_DECL</text>
</g>
<!-- 2 &#45; CursorKind.TYPE_REF -->
<g id="node3" class="node"><title>2 &#45; CursorKind.TYPE_REF</title>
<ellipse fill="lightblue" stroke="black" cx="698" cy="-549" rx="109.286" ry="18"/>
<text text-anchor="middle" x="698" y="-545.3" font-family="Times,serif" font-size="14.00">2 &#45; CursorKind.TYPE_REF</text>
</g>
<!-- 3 &#45; CursorKind.TYPEDEF_DECL -->
<g id="node4" class="node"><title>3 &#45; CursorKind.TYPEDEF_DECL</title>
<ellipse fill="lightblue" stroke="black" cx="698" cy="-639" rx="132.382" ry="18"/>
<text text-anchor="middle" x="698" y="-635.3" font-family="Times,serif" font-size="14.00">3 &#45; CursorKind.TYPEDEF_DECL</text>
</g>
<!-- 3 &#45; CursorKind.TYPEDEF_DECL&#45;&gt;2 &#45; CursorKind.TYPE_REF -->
<g id="edge1" class="edge"><title>3 &#45; CursorKind.TYPEDEF_DECL&#45;&gt;2 &#45; CursorKind.TYPE_REF</title>
<path fill="none" stroke="black" d="M698,-620.614C698,-608.24 698,-591.369 698,-577.22"/>
<polygon fill="black" stroke="black" points="701.5,-577.05 698,-567.05 694.5,-577.05 701.5,-577.05"/>
</g>
<!-- 4 &#45; Param\nint a -->
<g id="node5" class="node"><title>4 &#45; Param\nint a</title>
<ellipse fill="lightblue" stroke="black" cx="1401" cy="-117" rx="50.3073" ry="26.7407"/>
<text text-anchor="middle" x="1401" y="-120.8" font-family="Times,serif" font-size="14.00">4 &#45; Param</text>
<text text-anchor="middle" x="1401" y="-105.8" font-family="Times,serif" font-size="14.00">int a</text>
</g>
<!-- 25 &#45; Variable\na -->
<g id="node26" class="node"><title>25 &#45; Variable\na</title>
<ellipse fill="lightblue" stroke="black" cx="1401" cy="-27" rx="62.3993" ry="26.7407"/>
<text text-anchor="middle" x="1401" y="-30.8" font-family="Times,serif" font-size="14.00">25 &#45; Variable</text>
<text text-anchor="middle" x="1401" y="-15.8" font-family="Times,serif" font-size="14.00">a</text>
</g>
<!-- 4 &#45; Param\nint a&#45;&gt;25 &#45; Variable\na -->
<g id="edge29" class="edge"><title>4 &#45; Param\nint a&#45;&gt;25 &#45; Variable\na</title>
<path fill="none" stroke="black" d="M1401,-90.0731C1401,-81.9993 1401,-72.9428 1401,-64.2961"/>
<polygon fill="black" stroke="black" points="1404.5,-64.0457 1401,-54.0457 1397.5,-64.0458 1404.5,-64.0457"/>
</g>
<!-- 5 &#45; Constant\n1000 -->
<g id="node6" class="node"><title>5 &#45; Constant\n1000</title>
<ellipse fill="lightblue" stroke="black" cx="638" cy="-117" rx="58.5343" ry="26.7407"/>
<text text-anchor="middle" x="638" y="-120.8" font-family="Times,serif" font-size="14.00">5 &#45; Constant</text>
<text text-anchor="middle" x="638" y="-105.8" font-family="Times,serif" font-size="14.00">1000</text>
</g>
<!-- 26 &#45; Variable\nb -->
<g id="node27" class="node"><title>26 &#45; Variable\nb</title>
<ellipse fill="lightblue" stroke="black" cx="638" cy="-27" rx="62.3993" ry="26.7407"/>
<text text-anchor="middle" x="638" y="-30.8" font-family="Times,serif" font-size="14.00">26 &#45; Variable</text>
<text text-anchor="middle" x="638" y="-15.8" font-family="Times,serif" font-size="14.00">b</text>
</g>
<!-- 5 &#45; Constant\n1000&#45;&gt;26 &#45; Variable\nb -->
<g id="edge30" class="edge"><title>5 &#45; Constant\n1000&#45;&gt;26 &#45; Variable\nb</title>
<path fill="none" stroke="black" d="M638,-90.0731C638,-81.9993 638,-72.9428 638,-64.2961"/>
<polygon fill="black" stroke="black" points="641.5,-64.0457 638,-54.0457 634.5,-64.0458 641.5,-64.0457"/>
</g>
<!-- 6 &#45; Constant\n50 -->
<g id="node7" class="node"><title>6 &#45; Constant\n50</title>
<ellipse fill="lightblue" stroke="black" cx="1528" cy="-117" rx="58.5343" ry="26.7407"/>
<text text-anchor="middle" x="1528" y="-120.8" font-family="Times,serif" font-size="14.00">6 &#45; Constant</text>
<text text-anchor="middle" x="1528" y="-105.8" font-family="Times,serif" font-size="14.00">50</text>
</g>
<!-- 7 &#45; Binary Operator\n&gt; -->
<g id="node8" class="node"><title>7 &#45; Binary Operator\n&gt;</title>
<ellipse fill="lightblue" stroke="black" cx="1498" cy="-207" rx="87.5215" ry="26.7407"/>
<text text-anchor="middle" x="1498" y="-210.8" font-family="Times,serif" font-size="14.00">7 &#45; Binary Operator</text>
<text text-anchor="middle" x="1498" y="-195.8" font-family="Times,serif" font-size="14.00">&gt;</text>
</g>
<!-- 7 &#45; Binary Operator\n&gt;&#45;&gt;4 &#45; Param\nint a -->
<g id="edge2" class="edge"><title>7 &#45; Binary Operator\n&gt;&#45;&gt;4 &#45; Param\nint a</title>
<path fill="none" stroke="black" d="M1470.72,-181.253C1459.14,-170.744 1445.54,-158.41 1433.45,-147.438"/>
<polygon fill="black" stroke="black" points="1435.51,-144.584 1425.75,-140.457 1430.81,-149.768 1435.51,-144.584"/>
</g>
<!-- 7 &#45; Binary Operator\n&gt;&#45;&gt;6 &#45; Constant\n50 -->
<g id="edge3" class="edge"><title>7 &#45; Binary Operator\n&gt;&#45;&gt;6 &#45; Constant\n50</title>
<path fill="none" stroke="black" d="M1506.84,-180.073C1509.68,-171.748 1512.87,-162.378 1515.9,-153.49"/>
<polygon fill="black" stroke="black" points="1519.31,-154.336 1519.22,-143.742 1512.68,-152.077 1519.31,-154.336"/>
</g>
<!-- 8 &#45; Constant\n10 -->
<g id="node9" class="node"><title>8 &#45; Constant\n10</title>
<ellipse fill="lightblue" stroke="black" cx="1274" cy="-117" rx="58.5343" ry="26.7407"/>
<text text-anchor="middle" x="1274" y="-120.8" font-family="Times,serif" font-size="14.00">8 &#45; Constant</text>
<text text-anchor="middle" x="1274" y="-105.8" font-family="Times,serif" font-size="14.00">10</text>
</g>
<!-- 9 &#45; Binary Operator\n&gt; -->
<g id="node10" class="node"><title>9 &#45; Binary Operator\n&gt;</title>
<ellipse fill="lightblue" stroke="black" cx="1305" cy="-207" rx="87.5215" ry="26.7407"/>
<text text-anchor="middle" x="1305" y="-210.8" font-family="Times,serif" font-size="14.00">9 &#45; Binary Operator</text>
<text text-anchor="middle" x="1305" y="-195.8" font-family="Times,serif" font-size="14.00">&gt;</text>
</g>
<!-- 9 &#45; Binary Operator\n&gt;&#45;&gt;4 &#45; Param\nint a -->
<g id="edge4" class="edge"><title>9 &#45; Binary Operator\n&gt;&#45;&gt;4 &#45; Param\nint a</title>
<path fill="none" stroke="black" d="M1332,-181.253C1343.46,-170.744 1356.92,-158.41 1368.89,-147.438"/>
<polygon fill="black" stroke="black" points="1371.49,-149.794 1376.5,-140.457 1366.76,-144.634 1371.49,-149.794"/>
</g>
<!-- 9 &#45; Binary Operator\n&gt;&#45;&gt;8 &#45; Constant\n10 -->
<g id="edge5" class="edge"><title>9 &#45; Binary Operator\n&gt;&#45;&gt;8 &#45; Constant\n10</title>
<path fill="none" stroke="black" d="M1295.87,-180.073C1292.9,-171.659 1289.56,-162.177 1286.4,-153.204"/>
<polygon fill="black" stroke="black" points="1289.69,-152.011 1283.07,-143.742 1283.09,-154.336 1289.69,-152.011"/>
</g>
<!-- 10 &#45; Binary Operator\n|| -->
<g id="node11" class="node"><title>10 &#45; Binary Operator\n||</title>
<ellipse fill="lightblue" stroke="black" cx="1325" cy="-297" rx="92.4462" ry="26.7407"/>
<text text-anchor="middle" x="1325" y="-300.8" font-family="Times,serif" font-size="14.00">10 &#45; Binary Operator</text>
<text text-anchor="middle" x="1325" y="-285.8" font-family="Times,serif" font-size="14.00">||</text>
</g>
<!-- 10 &#45; Binary Operator\n||&#45;&gt;7 &#45; Binary Operator\n&gt; -->
<g id="edge6" class="edge"><title>10 &#45; Binary Operator\n||&#45;&gt;7 &#45; Binary Operator\n&gt;</title>
<path fill="none" stroke="black" d="M1369.55,-273.338C1392.63,-261.597 1420.97,-247.182 1445.15,-234.882"/>
<polygon fill="black" stroke="black" points="1446.87,-237.934 1454.2,-230.281 1443.7,-231.695 1446.87,-237.934"/>
</g>
<!-- 10 &#45; Binary Operator\n||&#45;&gt;9 &#45; Binary Operator\n&gt; -->
<g id="edge7" class="edge"><title>10 &#45; Binary Operator\n||&#45;&gt;9 &#45; Binary Operator\n&gt;</title>
<path fill="none" stroke="black" d="M1319.11,-270.073C1317.25,-261.911 1315.17,-252.744 1313.18,-244.011"/>
<polygon fill="black" stroke="black" points="1316.55,-243.021 1310.92,-234.046 1309.72,-244.573 1316.55,-243.021"/>
</g>
<!-- 11 &#45; Constant\n100 -->
<g id="node12" class="node"><title>11 &#45; Constant\n100</title>
<ellipse fill="lightblue" stroke="black" cx="546" cy="-207" rx="63.459" ry="26.7407"/>
<text text-anchor="middle" x="546" y="-210.8" font-family="Times,serif" font-size="14.00">11 &#45; Constant</text>
<text text-anchor="middle" x="546" y="-195.8" font-family="Times,serif" font-size="14.00">100</text>
</g>
<!-- 12 &#45; Binary Operator\n= -->
<g id="node13" class="node"><title>12 &#45; Binary Operator\n=</title>
<ellipse fill="lightblue" stroke="black" cx="513" cy="-297" rx="92.4462" ry="26.7407"/>
<text text-anchor="middle" x="513" y="-300.8" font-family="Times,serif" font-size="14.00">12 &#45; Binary Operator</text>
<text text-anchor="middle" x="513" y="-285.8" font-family="Times,serif" font-size="14.00">=</text>
</g>
<!-- 12 &#45; Binary Operator\n=&#45;&gt;5 &#45; Constant\n1000 -->
<g id="edge8" class="edge"><title>12 &#45; Binary Operator\n=&#45;&gt;5 &#45; Constant\n1000</title>
<path fill="none" stroke="black" d="M491.818,-270.652C473.817,-245.85 453.716,-207.846 473,-180 495.056,-148.151 535.649,-132.64 571.051,-125.096"/>
<polygon fill="black" stroke="black" points="571.737,-128.528 580.878,-123.173 570.392,-121.659 571.737,-128.528"/>
</g>
<!-- 12 &#45; Binary Operator\n=&#45;&gt;11 &#45; Constant\n100 -->
<g id="edge9" class="edge"><title>12 &#45; Binary Operator\n=&#45;&gt;11 &#45; Constant\n100</title>
<path fill="none" stroke="black" d="M522.723,-270.073C525.878,-261.659 529.434,-252.177 532.799,-243.204"/>
<polygon fill="black" stroke="black" points="536.113,-244.334 536.347,-233.742 529.558,-241.876 536.113,-244.334"/>
</g>
<!-- 13 &#45; Compound stmt\n  -->
<g id="node14" class="node"><title>13 &#45; Compound stmt\n </title>
<ellipse fill="lightblue" stroke="black" cx="607" cy="-387" rx="92.4462" ry="26.7407"/>
<text text-anchor="middle" x="607" y="-390.8" font-family="Times,serif" font-size="14.00">13 &#45; Compound stmt</text>
<text text-anchor="middle" x="607" y="-375.8" font-family="Times,serif" font-size="14.00"> </text>
</g>
<!-- 13 &#45; Compound stmt\n &#45;&gt;12 &#45; Binary Operator\n= -->
<g id="edge10" class="edge"><title>13 &#45; Compound stmt\n &#45;&gt;12 &#45; Binary Operator\n=</title>
<path fill="none" stroke="black" d="M580.566,-361.253C570.153,-351.505 558.063,-340.187 547.013,-329.842"/>
<polygon fill="black" stroke="black" points="549.254,-327.145 539.562,-322.866 544.47,-332.256 549.254,-327.145"/>
</g>
<!-- 14 &#45; Constant\n200 -->
<g id="node15" class="node"><title>14 &#45; Constant\n200</title>
<ellipse fill="lightblue" stroke="black" cx="730" cy="-207" rx="63.459" ry="26.7407"/>
<text text-anchor="middle" x="730" y="-210.8" font-family="Times,serif" font-size="14.00">14 &#45; Constant</text>
<text text-anchor="middle" x="730" y="-195.8" font-family="Times,serif" font-size="14.00">200</text>
</g>
<!-- 15 &#45; Binary Operator\n&lt; -->
<g id="node16" class="node"><title>15 &#45; Binary Operator\n&lt;</title>
<ellipse fill="lightblue" stroke="black" cx="716" cy="-297" rx="92.4462" ry="26.7407"/>
<text text-anchor="middle" x="716" y="-300.8" font-family="Times,serif" font-size="14.00">15 &#45; Binary Operator</text>
<text text-anchor="middle" x="716" y="-285.8" font-family="Times,serif" font-size="14.00">&lt;</text>
</g>
<!-- 15 &#45; Binary Operator\n&lt;&#45;&gt;5 &#45; Constant\n1000 -->
<g id="edge11" class="edge"><title>15 &#45; Binary Operator\n&lt;&#45;&gt;5 &#45; Constant\n1000</title>
<path fill="none" stroke="black" d="M685.885,-271.315C675.121,-260.91 663.947,-247.97 657,-234 644.652,-209.169 640.059,-178.014 638.468,-154.246"/>
<polygon fill="black" stroke="black" points="641.962,-154.027 637.944,-144.224 634.971,-154.393 641.962,-154.027"/>
</g>
<!-- 15 &#45; Binary Operator\n&lt;&#45;&gt;14 &#45; Constant\n200 -->
<g id="edge12" class="edge"><title>15 &#45; Binary Operator\n&lt;&#45;&gt;14 &#45; Constant\n200</title>
<path fill="none" stroke="black" d="M720.125,-270.073C721.423,-261.911 722.882,-252.744 724.271,-244.011"/>
<polygon fill="black" stroke="black" points="727.742,-244.471 725.856,-234.046 720.829,-243.372 727.742,-244.471"/>
</g>
<!-- 16 &#45; Constant\n300 -->
<g id="node17" class="node"><title>16 &#45; Constant\n300</title>
<ellipse fill="lightblue" stroke="black" cx="904" cy="-117" rx="63.459" ry="26.7407"/>
<text text-anchor="middle" x="904" y="-120.8" font-family="Times,serif" font-size="14.00">16 &#45; Constant</text>
<text text-anchor="middle" x="904" y="-105.8" font-family="Times,serif" font-size="14.00">300</text>
</g>
<!-- 17 &#45; Binary Operator\n= -->
<g id="node18" class="node"><title>17 &#45; Binary Operator\n=</title>
<ellipse fill="lightblue" stroke="black" cx="904" cy="-207" rx="92.4462" ry="26.7407"/>
<text text-anchor="middle" x="904" y="-210.8" font-family="Times,serif" font-size="14.00">17 &#45; Binary Operator</text>
<text text-anchor="middle" x="904" y="-195.8" font-family="Times,serif" font-size="14.00">=</text>
</g>
<!-- 17 &#45; Binary Operator\n=&#45;&gt;5 &#45; Constant\n1000 -->
<g id="edge13" class="edge"><title>17 &#45; Binary Operator\n=&#45;&gt;5 &#45; Constant\n1000</title>
<path fill="none" stroke="black" d="M844.635,-186.361C799.652,-171.479 738.259,-151.168 694.098,-136.559"/>
<polygon fill="black" stroke="black" points="694.982,-133.165 684.388,-133.347 692.783,-139.81 694.982,-133.165"/>
</g>
<!-- 17 &#45; Binary Operator\n=&#45;&gt;16 &#45; Constant\n300 -->
<g id="edge14" class="edge"><title>17 &#45; Binary Operator\n=&#45;&gt;16 &#45; Constant\n300</title>
<path fill="none" stroke="black" d="M904,-180.073C904,-171.999 904,-162.943 904,-154.296"/>
<polygon fill="black" stroke="black" points="907.5,-154.046 904,-144.046 900.5,-154.046 907.5,-154.046"/>
</g>
<!-- 18 &#45; Compound stmt\n  -->
<g id="node19" class="node"><title>18 &#45; Compound stmt\n </title>
<ellipse fill="lightblue" stroke="black" cx="919" cy="-297" rx="92.4462" ry="26.7407"/>
<text text-anchor="middle" x="919" y="-300.8" font-family="Times,serif" font-size="14.00">18 &#45; Compound stmt</text>
<text text-anchor="middle" x="919" y="-285.8" font-family="Times,serif" font-size="14.00"> </text>
</g>
<!-- 18 &#45; Compound stmt\n &#45;&gt;17 &#45; Binary Operator\n= -->
<g id="edge15" class="edge"><title>18 &#45; Compound stmt\n &#45;&gt;17 &#45; Binary Operator\n=</title>
<path fill="none" stroke="black" d="M914.581,-270.073C913.189,-261.911 911.627,-252.744 910.138,-244.011"/>
<polygon fill="black" stroke="black" points="913.57,-243.315 908.44,-234.046 906.67,-244.492 913.57,-243.315"/>
</g>
<!-- 19 &#45; Binary Operator\n= -->
<g id="node20" class="node"><title>19 &#45; Binary Operator\n=</title>
<ellipse fill="lightblue" stroke="black" cx="1107" cy="-207" rx="92.4462" ry="26.7407"/>
<text text-anchor="middle" x="1107" y="-210.8" font-family="Times,serif" font-size="14.00">19 &#45; Binary Operator</text>
<text text-anchor="middle" x="1107" y="-195.8" font-family="Times,serif" font-size="14.00">=</text>
</g>
<!-- 19 &#45; Binary Operator\n=&#45;&gt;4 &#45; Param\nint a -->
<g id="edge17" class="edge"><title>19 &#45; Binary Operator\n=&#45;&gt;4 &#45; Param\nint a</title>
<path fill="none" stroke="black" d="M1174.64,-188.631C1237.96,-172.28 1325.14,-149.502 1341,-144 1345.46,-142.453 1350.05,-140.724 1354.61,-138.911"/>
<polygon fill="black" stroke="black" points="1355.97,-142.138 1363.89,-135.106 1353.31,-135.661 1355.97,-142.138"/>
</g>
<!-- 19 &#45; Binary Operator\n=&#45;&gt;5 &#45; Constant\n1000 -->
<g id="edge16" class="edge"><title>19 &#45; Binary Operator\n=&#45;&gt;5 &#45; Constant\n1000</title>
<path fill="none" stroke="black" d="M1040.52,-188.215C1028.73,-185.3 1016.53,-182.44 1005,-180 900.091,-157.807 776.981,-138.334 703.347,-127.38"/>
<polygon fill="black" stroke="black" points="703.698,-123.894 693.293,-125.892 702.672,-130.818 703.698,-123.894"/>
</g>
<!-- 20 &#45; Compound stmt\n  -->
<g id="node21" class="node"><title>20 &#45; Compound stmt\n </title>
<ellipse fill="lightblue" stroke="black" cx="1122" cy="-297" rx="92.4462" ry="26.7407"/>
<text text-anchor="middle" x="1122" y="-300.8" font-family="Times,serif" font-size="14.00">20 &#45; Compound stmt</text>
<text text-anchor="middle" x="1122" y="-285.8" font-family="Times,serif" font-size="14.00"> </text>
</g>
<!-- 20 &#45; Compound stmt\n &#45;&gt;19 &#45; Binary Operator\n= -->
<g id="edge18" class="edge"><title>20 &#45; Compound stmt\n &#45;&gt;19 &#45; Binary Operator\n=</title>
<path fill="none" stroke="black" d="M1117.58,-270.073C1116.19,-261.911 1114.63,-252.744 1113.14,-244.011"/>
<polygon fill="black" stroke="black" points="1116.57,-243.315 1111.44,-234.046 1109.67,-244.492 1116.57,-243.315"/>
</g>
<!-- 21 &#45; CursorKind.IF_STMT -->
<g id="node22" class="node"><title>21 &#45; CursorKind.IF_STMT</title>
<ellipse fill="lightblue" stroke="black" cx="919" cy="-387" rx="107.361" ry="18"/>
<text text-anchor="middle" x="919" y="-383.3" font-family="Times,serif" font-size="14.00">21 &#45; CursorKind.IF_STMT</text>
</g>
<!-- 21 &#45; CursorKind.IF_STMT&#45;&gt;15 &#45; Binary Operator\n&lt; -->
<g id="edge19" class="edge"><title>21 &#45; CursorKind.IF_STMT&#45;&gt;15 &#45; Binary Operator\n&lt;</title>
<path fill="none" stroke="black" d="M882.238,-370.064C852.578,-357.206 810.26,-338.861 775.744,-323.899"/>
<polygon fill="black" stroke="black" points="776.8,-320.542 766.233,-319.776 774.016,-326.964 776.8,-320.542"/>
</g>
<!-- 21 &#45; CursorKind.IF_STMT&#45;&gt;18 &#45; Compound stmt\n  -->
<g id="edge20" class="edge"><title>21 &#45; CursorKind.IF_STMT&#45;&gt;18 &#45; Compound stmt\n </title>
<path fill="none" stroke="black" d="M919,-368.614C919,-358.774 919,-346.089 919,-334.191"/>
<polygon fill="black" stroke="black" points="922.5,-334.029 919,-324.029 915.5,-334.029 922.5,-334.029"/>
</g>
<!-- 21 &#45; CursorKind.IF_STMT&#45;&gt;20 &#45; Compound stmt\n  -->
<g id="edge21" class="edge"><title>21 &#45; CursorKind.IF_STMT&#45;&gt;20 &#45; Compound stmt\n </title>
<path fill="none" stroke="black" d="M955.762,-370.064C985.422,-357.206 1027.74,-338.861 1062.26,-323.899"/>
<polygon fill="black" stroke="black" points="1063.98,-326.964 1071.77,-319.776 1061.2,-320.542 1063.98,-326.964"/>
</g>
<!-- 22 &#45; CursorKind.IF_STMT -->
<g id="node23" class="node"><title>22 &#45; CursorKind.IF_STMT</title>
<ellipse fill="lightblue" stroke="black" cx="919" cy="-468" rx="107.361" ry="18"/>
<text text-anchor="middle" x="919" y="-464.3" font-family="Times,serif" font-size="14.00">22 &#45; CursorKind.IF_STMT</text>
</g>
<!-- 22 &#45; CursorKind.IF_STMT&#45;&gt;10 &#45; Binary Operator\n|| -->
<g id="edge22" class="edge"><title>22 &#45; CursorKind.IF_STMT&#45;&gt;10 &#45; Binary Operator\n||</title>
<path fill="none" stroke="black" d="M957.195,-451.101C1027.88,-421.678 1179.59,-358.526 1264.43,-323.214"/>
<polygon fill="black" stroke="black" points="1265.79,-326.438 1273.68,-319.363 1263.1,-319.975 1265.79,-326.438"/>
</g>
<!-- 22 &#45; CursorKind.IF_STMT&#45;&gt;13 &#45; Compound stmt\n  -->
<g id="edge23" class="edge"><title>22 &#45; CursorKind.IF_STMT&#45;&gt;13 &#45; Compound stmt\n </title>
<path fill="none" stroke="black" d="M862.499,-452.694C812.802,-440.11 739.981,-421.672 684.785,-407.696"/>
<polygon fill="black" stroke="black" points="685.595,-404.29 675.042,-405.229 683.877,-411.076 685.595,-404.29"/>
</g>
<!-- 22 &#45; CursorKind.IF_STMT&#45;&gt;21 &#45; CursorKind.IF_STMT -->
<g id="edge24" class="edge"><title>22 &#45; CursorKind.IF_STMT&#45;&gt;21 &#45; CursorKind.IF_STMT</title>
<path fill="none" stroke="black" d="M919,-449.858C919,-439.713 919,-426.634 919,-415.117"/>
<polygon fill="black" stroke="black" points="922.5,-415.108 919,-405.108 915.5,-415.108 922.5,-415.108"/>
</g>
<!-- 23 &#45; Compound stmt\n  -->
<g id="node24" class="node"><title>23 &#45; Compound stmt\n </title>
<ellipse fill="lightblue" stroke="black" cx="919" cy="-549" rx="92.4462" ry="26.7407"/>
<text text-anchor="middle" x="919" y="-552.8" font-family="Times,serif" font-size="14.00">23 &#45; Compound stmt</text>
<text text-anchor="middle" x="919" y="-537.8" font-family="Times,serif" font-size="14.00"> </text>
</g>
<!-- 23 &#45; Compound stmt\n &#45;&gt;5 &#45; Constant\n1000 -->
<g id="edge25" class="edge"><title>23 &#45; Compound stmt\n &#45;&gt;5 &#45; Constant\n1000</title>
<path fill="none" stroke="black" d="M853.851,-529.949C712.852,-490.658 392,-399.937 392,-388 392,-388 392,-388 392,-296 392,-235.785 415.302,-218.016 462,-180 494.035,-153.92 537.823,-138.439 573.707,-129.468"/>
<polygon fill="black" stroke="black" points="574.687,-132.833 583.602,-127.107 573.063,-126.024 574.687,-132.833"/>
</g>
<!-- 23 &#45; Compound stmt\n &#45;&gt;22 &#45; CursorKind.IF_STMT -->
<g id="edge26" class="edge"><title>23 &#45; Compound stmt\n &#45;&gt;22 &#45; CursorKind.IF_STMT</title>
<path fill="none" stroke="black" d="M919,-521.694C919,-513.58 919,-504.626 919,-496.438"/>
<polygon fill="black" stroke="black" points="922.5,-496.248 919,-486.248 915.5,-496.248 922.5,-496.248"/>
</g>
<!-- 24 &#45; Subsystem\nint main -->
<g id="node25" class="node"><title>24 &#45; Subsystem\nint main</title>
<ellipse fill="lightblue" stroke="black" cx="920" cy="-639" rx="71.127" ry="26.7407"/>
<text text-anchor="middle" x="920" y="-642.8" font-family="Times,serif" font-size="14.00">24 &#45; Subsystem</text>
<text text-anchor="middle" x="920" y="-627.8" font-family="Times,serif" font-size="14.00">int main</text>
</g>
<!-- 24 &#45; Subsystem\nint main&#45;&gt;4 &#45; Param\nint a -->
<g id="edge27" class="edge"><title>24 &#45; Subsystem\nint main&#45;&gt;4 &#45; Param\nint a</title>
<path fill="none" stroke="black" d="M990.686,-635.726C1167.34,-628.132 1614,-596.34 1614,-469 1614,-469 1614,-469 1614,-296 1614,-243.684 1629.26,-218.65 1594,-180 1552.44,-134.441 1518.16,-164.494 1460,-144 1455.79,-142.516 1451.46,-140.863 1447.15,-139.13"/>
<polygon fill="black" stroke="black" points="1448.37,-135.849 1437.79,-135.243 1445.68,-142.313 1448.37,-135.849"/>
</g>
<!-- 24 &#45; Subsystem\nint main&#45;&gt;23 &#45; Compound stmt\n  -->
<g id="edge28" class="edge"><title>24 &#45; Subsystem\nint main&#45;&gt;23 &#45; Compound stmt\n </title>
<path fill="none" stroke="black" d="M919.705,-612.073C919.614,-603.999 919.511,-594.943 919.412,-586.296"/>
<polygon fill="black" stroke="black" points="922.909,-586.005 919.296,-576.046 915.91,-586.085 922.909,-586.005"/>
</g>
<!-- 27 &#45; CursorKind.TRANSLATION_UNIT -->
<g id="node28" class="node"><title>27 &#45; CursorKind.TRANSLATION_UNIT</title>
<ellipse fill="lightblue" stroke="black" cx="556" cy="-720" rx="157.404" ry="18"/>
<text text-anchor="middle" x="556" y="-716.3" font-family="Times,serif" font-size="14.00">27 &#45; CursorKind.TRANSLATION_UNIT</text>
</g>
<!-- 27 &#45; CursorKind.TRANSLATION_UNIT&#45;&gt;0 &#45; CursorKind.TYPEDEF_DECL -->
<g id="edge31" class="edge"><title>27 &#45; CursorKind.TRANSLATION_UNIT&#45;&gt;0 &#45; CursorKind.TYPEDEF_DECL</title>
<path fill="none" stroke="black" d="M477.243,-704.326C403.212,-690.532 292.727,-669.947 216.792,-655.798"/>
<polygon fill="black" stroke="black" points="217.251,-652.324 206.779,-653.933 215.969,-659.205 217.251,-652.324"/>
</g>
<!-- 27 &#45; CursorKind.TRANSLATION_UNIT&#45;&gt;1 &#45; CursorKind.TYPEDEF_DECL -->
<g id="edge32" class="edge"><title>27 &#45; CursorKind.TRANSLATION_UNIT&#45;&gt;1 &#45; CursorKind.TYPEDEF_DECL</title>
<path fill="none" stroke="black" d="M526.098,-702.246C504.973,-690.411 476.473,-674.442 453.628,-661.642"/>
<polygon fill="black" stroke="black" points="455.294,-658.564 444.859,-656.73 451.873,-664.671 455.294,-658.564"/>
</g>
<!-- 27 &#45; CursorKind.TRANSLATION_UNIT&#45;&gt;3 &#45; CursorKind.TYPEDEF_DECL -->
<g id="edge33" class="edge"><title>27 &#45; CursorKind.TRANSLATION_UNIT&#45;&gt;3 &#45; CursorKind.TYPEDEF_DECL</title>
<path fill="none" stroke="black" d="M586.115,-702.246C607.388,-690.411 636.091,-674.442 659.098,-661.642"/>
<polygon fill="black" stroke="black" points="660.892,-664.65 667.929,-656.73 657.489,-658.533 660.892,-664.65"/>
</g>
<!-- 27 &#45; CursorKind.TRANSLATION_UNIT&#45;&gt;24 &#45; Subsystem\nint main -->
<g id="edge34" class="edge"><title>27 &#45; CursorKind.TRANSLATION_UNIT&#45;&gt;24 &#45; Subsystem\nint main</title>
<path fill="none" stroke="black" d="M645.529,-705.189C701.515,-695.824 774.914,-682.218 839,-666 845.445,-664.369 852.128,-662.507 858.766,-660.547"/>
<polygon fill="black" stroke="black" points="859.872,-663.87 868.427,-657.62 857.841,-657.17 859.872,-663.87"/>
</g>
<!-- 28 &#45; XML -->
<g id="node29" class="node"><title>28 &#45; XML</title>
<ellipse fill="lightblue" stroke="black" cx="556" cy="-792" rx="47.169" ry="18"/>
<text text-anchor="middle" x="556" y="-788.3" font-family="Times,serif" font-size="14.00">28 &#45; XML</text>
</g>
<!-- 28 &#45; XML&#45;&gt;27 &#45; CursorKind.TRANSLATION_UNIT -->
<g id="edge35" class="edge"><title>28 &#45; XML&#45;&gt;27 &#45; CursorKind.TRANSLATION_UNIT</title>
<path fill="none" stroke="black" d="M556,-773.697C556,-765.983 556,-756.712 556,-748.112"/>
<polygon fill="black" stroke="black" points="559.5,-748.104 556,-738.104 552.5,-748.104 559.5,-748.104"/>
</g>
</g>
</svg>
