<?xml version="1.0" encoding="UTF-8" standalone="no"?>
<!DOCTYPE svg PUBLIC "-//W3C//DTD SVG 1.1//EN"
 "http://www.w3.org/Graphics/SVG/1.1/DTD/svg11.dtd">
<!-- Generated by graphviz version 2.36.0 (20140111.2315)
 -->
<!-- Title: simple Pages: 1 -->
<svg width="1685pt" height="638pt"
 viewBox="0.00 0.00 1685.00 638.00" xmlns="http://www.w3.org/2000/svg" xmlns:xlink="http://www.w3.org/1999/xlink">
<g id="graph0" class="graph" transform="scale(1 1) rotate(0) translate(4 634)">
<title>simple</title>
<polygon fill="white" stroke="none" points="-4,4 -4,-634 1681,-634 1681,4 -4,4"/>
<!-- 0 &#45; CursorKind.TYPEDEF_DECL -->
<g id="node1" class="node"><title>0 &#45; CursorKind.TYPEDEF_DECL</title>
<ellipse fill="lightblue" stroke="black" cx="132" cy="-171" rx="132.382" ry="18"/>
<text text-anchor="middle" x="132" y="-167.3" font-family="Times,serif" font-size="14.00">0 &#45; CursorKind.TYPEDEF_DECL</text>
</g>
<!-- 19 &#45; CursorKind.TRANSLATION_UNIT -->
<g id="node20" class="node"><title>19 &#45; CursorKind.TRANSLATION_UNIT</title>
<ellipse fill="lightblue" stroke="black" cx="556" cy="-90" rx="157.404" ry="18"/>
<text text-anchor="middle" x="556" y="-86.3" font-family="Times,serif" font-size="14.00">19 &#45; CursorKind.TRANSLATION_UNIT</text>
</g>
<!-- 0 &#45; CursorKind.TYPEDEF_DECL&#45;&gt;19 &#45; CursorKind.TRANSLATION_UNIT -->
<g id="edge16" class="edge"><title>0 &#45; CursorKind.TYPEDEF_DECL&#45;&gt;19 &#45; CursorKind.TRANSLATION_UNIT</title>
<path fill="none" stroke="black" d="M206.827,-156.058C279.52,-142.514 389.923,-121.944 467.068,-107.57"/>
<polygon fill="black" stroke="black" points="468.062,-110.945 477.251,-105.673 466.779,-104.064 468.062,-110.945"/>
</g>
<!-- 1 &#45; CursorKind.TYPEDEF_DECL -->
<g id="node2" class="node"><title>1 &#45; CursorKind.TYPEDEF_DECL</title>
<ellipse fill="lightblue" stroke="black" cx="415" cy="-171" rx="132.382" ry="18"/>
<text text-anchor="middle" x="415" y="-167.3" font-family="Times,serif" font-size="14.00">1 &#45; CursorKind.TYPEDEF_DECL</text>
</g>
<!-- 1 &#45; CursorKind.TYPEDEF_DECL&#45;&gt;19 &#45; CursorKind.TRANSLATION_UNIT -->
<g id="edge17" class="edge"><title>1 &#45; CursorKind.TYPEDEF_DECL&#45;&gt;19 &#45; CursorKind.TRANSLATION_UNIT</title>
<path fill="none" stroke="black" d="M444.558,-153.439C465.66,-141.616 494.251,-125.597 517.19,-112.745"/>
<polygon fill="black" stroke="black" points="518.982,-115.753 525.995,-107.811 515.56,-109.646 518.982,-115.753"/>
</g>
<!-- 2 &#45; CursorKind.TYPE_REF -->
<g id="node3" class="node"><title>2 &#45; CursorKind.TYPE_REF</title>
<ellipse fill="lightblue" stroke="black" cx="698" cy="-261" rx="109.286" ry="18"/>
<text text-anchor="middle" x="698" y="-257.3" font-family="Times,serif" font-size="14.00">2 &#45; CursorKind.TYPE_REF</text>
</g>
<!-- 3 &#45; CursorKind.TYPEDEF_DECL -->
<g id="node4" class="node"><title>3 &#45; CursorKind.TYPEDEF_DECL</title>
<ellipse fill="lightblue" stroke="black" cx="698" cy="-171" rx="132.382" ry="18"/>
<text text-anchor="middle" x="698" y="-167.3" font-family="Times,serif" font-size="14.00">3 &#45; CursorKind.TYPEDEF_DECL</text>
</g>
<!-- 2 &#45; CursorKind.TYPE_REF&#45;&gt;3 &#45; CursorKind.TYPEDEF_DECL -->
<g id="edge1" class="edge"><title>2 &#45; CursorKind.TYPE_REF&#45;&gt;3 &#45; CursorKind.TYPEDEF_DECL</title>
<path fill="none" stroke="black" d="M698,-242.614C698,-230.24 698,-213.369 698,-199.22"/>
<polygon fill="black" stroke="black" points="701.5,-199.05 698,-189.05 694.5,-199.05 701.5,-199.05"/>
</g>
<!-- 3 &#45; CursorKind.TYPEDEF_DECL&#45;&gt;19 &#45; CursorKind.TRANSLATION_UNIT -->
<g id="edge18" class="edge"><title>3 &#45; CursorKind.TYPEDEF_DECL&#45;&gt;19 &#45; CursorKind.TRANSLATION_UNIT</title>
<path fill="none" stroke="black" d="M668.232,-153.439C646.981,-141.616 618.187,-125.597 595.086,-112.745"/>
<polygon fill="black" stroke="black" points="596.658,-109.614 586.218,-107.811 593.255,-115.732 596.658,-109.614"/>
</g>
<!-- 4 &#45; Param\nint a -->
<g id="node5" class="node"><title>4 &#45; Param\nint a</title>
<ellipse fill="lightblue" stroke="black" cx="897" cy="-261" rx="50.3073" ry="26.7407"/>
<text text-anchor="middle" x="897" y="-264.8" font-family="Times,serif" font-size="14.00">4 &#45; Param</text>
<text text-anchor="middle" x="897" y="-249.8" font-family="Times,serif" font-size="14.00">int a</text>
</g>
<!-- 18 &#45; Subsystem\nint main -->
<g id="node19" class="node"><title>18 &#45; Subsystem\nint main</title>
<ellipse fill="lightblue" stroke="black" cx="920" cy="-171" rx="71.127" ry="26.7407"/>
<text text-anchor="middle" x="920" y="-174.8" font-family="Times,serif" font-size="14.00">18 &#45; Subsystem</text>
<text text-anchor="middle" x="920" y="-159.8" font-family="Times,serif" font-size="14.00">int main</text>
</g>
<!-- 4 &#45; Param\nint a&#45;&gt;18 &#45; Subsystem\nint main -->
<g id="edge14" class="edge"><title>4 &#45; Param\nint a&#45;&gt;18 &#45; Subsystem\nint main</title>
<path fill="none" stroke="black" d="M903.776,-234.073C905.933,-225.822 908.358,-216.544 910.662,-207.727"/>
<polygon fill="black" stroke="black" points="914.05,-208.606 913.193,-198.046 907.278,-206.836 914.05,-208.606"/>
</g>
<!-- 5 &#45; Constant\n1000 -->
<g id="node6" class="node"><title>5 &#45; Constant\n1000</title>
<ellipse fill="lightblue" stroke="black" cx="820" cy="-513" rx="58.5343" ry="26.7407"/>
<text text-anchor="middle" x="820" y="-516.8" font-family="Times,serif" font-size="14.00">5 &#45; Constant</text>
<text text-anchor="middle" x="820" y="-501.8" font-family="Times,serif" font-size="14.00">1000</text>
</g>
<!-- 6 &#45; CursorKind.VAR_DECL -->
<g id="node7" class="node"><title>6 &#45; CursorKind.VAR_DECL</title>
<ellipse fill="lightblue" stroke="black" cx="908" cy="-423" rx="112.16" ry="18"/>
<text text-anchor="middle" x="908" y="-419.3" font-family="Times,serif" font-size="14.00">6 &#45; CursorKind.VAR_DECL</text>
</g>
<!-- 5 &#45; Constant\n1000&#45;&gt;6 &#45; CursorKind.VAR_DECL -->
<g id="edge2" class="edge"><title>5 &#45; Constant\n1000&#45;&gt;6 &#45; CursorKind.VAR_DECL</title>
<path fill="none" stroke="black" d="M843.582,-488.418C855.978,-476.022 871.151,-460.849 883.657,-448.343"/>
<polygon fill="black" stroke="black" points="886.454,-450.495 891.051,-440.949 881.505,-445.546 886.454,-450.495"/>
</g>
<!-- 7 &#45; CursorKind.DECL_STMT -->
<g id="node8" class="node"><title>7 &#45; CursorKind.DECL_STMT</title>
<ellipse fill="lightblue" stroke="black" cx="930" cy="-342" rx="117.935" ry="18"/>
<text text-anchor="middle" x="930" y="-338.3" font-family="Times,serif" font-size="14.00">7 &#45; CursorKind.DECL_STMT</text>
</g>
<!-- 6 &#45; CursorKind.VAR_DECL&#45;&gt;7 &#45; CursorKind.DECL_STMT -->
<g id="edge3" class="edge"><title>6 &#45; CursorKind.VAR_DECL&#45;&gt;7 &#45; CursorKind.DECL_STMT</title>
<path fill="none" stroke="black" d="M912.774,-404.858C915.628,-394.609 919.316,-381.366 922.547,-369.765"/>
<polygon fill="black" stroke="black" points="925.925,-370.681 925.236,-360.108 919.181,-368.803 925.925,-370.681"/>
</g>
<!-- 17 &#45; Compound stmt\n  -->
<g id="node18" class="node"><title>17 &#45; Compound stmt\n </title>
<ellipse fill="lightblue" stroke="black" cx="1058" cy="-261" rx="92.4462" ry="26.7407"/>
<text text-anchor="middle" x="1058" y="-264.8" font-family="Times,serif" font-size="14.00">17 &#45; Compound stmt</text>
<text text-anchor="middle" x="1058" y="-249.8" font-family="Times,serif" font-size="14.00"> </text>
</g>
<!-- 7 &#45; CursorKind.DECL_STMT&#45;&gt;17 &#45; Compound stmt\n  -->
<g id="edge12" class="edge"><title>7 &#45; CursorKind.DECL_STMT&#45;&gt;17 &#45; Compound stmt\n </title>
<path fill="none" stroke="black" d="M956.833,-324.439C972.457,-314.796 992.603,-302.362 1010.8,-291.132"/>
<polygon fill="black" stroke="black" points="1012.88,-293.963 1019.55,-285.733 1009.2,-288.006 1012.88,-293.963"/>
</g>
<!-- 8 &#45; CursorKind.DECL_REF_EXPR -->
<g id="node9" class="node"><title>8 &#45; CursorKind.DECL_REF_EXPR</title>
<ellipse fill="lightblue" stroke="black" cx="1042" cy="-603" rx="137.207" ry="18"/>
<text text-anchor="middle" x="1042" y="-599.3" font-family="Times,serif" font-size="14.00">8 &#45; CursorKind.DECL_REF_EXPR</text>
</g>
<!-- 9 &#45; CursorKind.UNEXPOSED_EXPR -->
<g id="node10" class="node"><title>9 &#45; CursorKind.UNEXPOSED_EXPR</title>
<ellipse fill="lightblue" stroke="black" cx="1042" cy="-513" rx="145.38" ry="18"/>
<text text-anchor="middle" x="1042" y="-509.3" font-family="Times,serif" font-size="14.00">9 &#45; CursorKind.UNEXPOSED_EXPR</text>
</g>
<!-- 8 &#45; CursorKind.DECL_REF_EXPR&#45;&gt;9 &#45; CursorKind.UNEXPOSED_EXPR -->
<g id="edge4" class="edge"><title>8 &#45; CursorKind.DECL_REF_EXPR&#45;&gt;9 &#45; CursorKind.UNEXPOSED_EXPR</title>
<path fill="none" stroke="black" d="M1042,-584.614C1042,-572.24 1042,-555.369 1042,-541.22"/>
<polygon fill="black" stroke="black" points="1045.5,-541.05 1042,-531.05 1038.5,-541.05 1045.5,-541.05"/>
</g>
<!-- 11 &#45; Binary Operator\n&gt; -->
<g id="node12" class="node"><title>11 &#45; Binary Operator\n&gt;</title>
<ellipse fill="lightblue" stroke="black" cx="1185" cy="-423" rx="92.4462" ry="26.7407"/>
<text text-anchor="middle" x="1185" y="-426.8" font-family="Times,serif" font-size="14.00">11 &#45; Binary Operator</text>
<text text-anchor="middle" x="1185" y="-411.8" font-family="Times,serif" font-size="14.00">&gt;</text>
</g>
<!-- 9 &#45; CursorKind.UNEXPOSED_EXPR&#45;&gt;11 &#45; Binary Operator\n&gt; -->
<g id="edge5" class="edge"><title>9 &#45; CursorKind.UNEXPOSED_EXPR&#45;&gt;11 &#45; Binary Operator\n&gt;</title>
<path fill="none" stroke="black" d="M1069.23,-495.241C1088.71,-483.257 1115.4,-466.83 1138.25,-452.769"/>
<polygon fill="black" stroke="black" points="1140.11,-455.732 1146.8,-447.511 1136.44,-449.771 1140.11,-455.732"/>
</g>
<!-- 10 &#45; Constant\n50 -->
<g id="node11" class="node"><title>10 &#45; Constant\n50</title>
<ellipse fill="lightblue" stroke="black" cx="1269" cy="-513" rx="63.459" ry="26.7407"/>
<text text-anchor="middle" x="1269" y="-516.8" font-family="Times,serif" font-size="14.00">10 &#45; Constant</text>
<text text-anchor="middle" x="1269" y="-501.8" font-family="Times,serif" font-size="14.00">50</text>
</g>
<!-- 10 &#45; Constant\n50&#45;&gt;11 &#45; Binary Operator\n&gt; -->
<g id="edge6" class="edge"><title>10 &#45; Constant\n50&#45;&gt;11 &#45; Binary Operator\n&gt;</title>
<path fill="none" stroke="black" d="M1246.05,-487.954C1236.82,-478.289 1226.04,-466.996 1216.13,-456.611"/>
<polygon fill="black" stroke="black" points="1218.54,-454.064 1209.1,-449.247 1213.47,-458.897 1218.54,-454.064"/>
</g>
<!-- 16 &#45; CursorKind.IF_STMT -->
<g id="node17" class="node"><title>16 &#45; CursorKind.IF_STMT</title>
<ellipse fill="lightblue" stroke="black" cx="1185" cy="-342" rx="107.361" ry="18"/>
<text text-anchor="middle" x="1185" y="-338.3" font-family="Times,serif" font-size="14.00">16 &#45; CursorKind.IF_STMT</text>
</g>
<!-- 11 &#45; Binary Operator\n&gt;&#45;&gt;16 &#45; CursorKind.IF_STMT -->
<g id="edge10" class="edge"><title>11 &#45; Binary Operator\n&gt;&#45;&gt;16 &#45; CursorKind.IF_STMT</title>
<path fill="none" stroke="black" d="M1185,-395.694C1185,-387.58 1185,-378.626 1185,-370.438"/>
<polygon fill="black" stroke="black" points="1188.5,-370.248 1185,-360.248 1181.5,-370.248 1188.5,-370.248"/>
</g>
<!-- 12 &#45; CursorKind.DECL_REF_EXPR -->
<g id="node13" class="node"><title>12 &#45; CursorKind.DECL_REF_EXPR</title>
<ellipse fill="lightblue" stroke="black" cx="1391" cy="-603" rx="141.531" ry="18"/>
<text text-anchor="middle" x="1391" y="-599.3" font-family="Times,serif" font-size="14.00">12 &#45; CursorKind.DECL_REF_EXPR</text>
</g>
<!-- 14 &#45; Binary Operator\n= -->
<g id="node15" class="node"><title>14 &#45; Binary Operator\n=</title>
<ellipse fill="lightblue" stroke="black" cx="1443" cy="-513" rx="92.4462" ry="26.7407"/>
<text text-anchor="middle" x="1443" y="-516.8" font-family="Times,serif" font-size="14.00">14 &#45; Binary Operator</text>
<text text-anchor="middle" x="1443" y="-501.8" font-family="Times,serif" font-size="14.00">=</text>
</g>
<!-- 12 &#45; CursorKind.DECL_REF_EXPR&#45;&gt;14 &#45; Binary Operator\n= -->
<g id="edge7" class="edge"><title>12 &#45; CursorKind.DECL_REF_EXPR&#45;&gt;14 &#45; Binary Operator\n=</title>
<path fill="none" stroke="black" d="M1401.03,-585.033C1407.15,-574.664 1415.21,-561.024 1422.63,-548.472"/>
<polygon fill="black" stroke="black" points="1425.81,-549.976 1427.88,-539.586 1419.78,-546.415 1425.81,-549.976"/>
</g>
<!-- 13 &#45; Constant\n100 -->
<g id="node14" class="node"><title>13 &#45; Constant\n100</title>
<ellipse fill="lightblue" stroke="black" cx="1614" cy="-603" rx="63.459" ry="26.7407"/>
<text text-anchor="middle" x="1614" y="-606.8" font-family="Times,serif" font-size="14.00">13 &#45; Constant</text>
<text text-anchor="middle" x="1614" y="-591.8" font-family="Times,serif" font-size="14.00">100</text>
</g>
<!-- 13 &#45; Constant\n100&#45;&gt;14 &#45; Binary Operator\n= -->
<g id="edge8" class="edge"><title>13 &#45; Constant\n100&#45;&gt;14 &#45; Binary Operator\n=</title>
<path fill="none" stroke="black" d="M1574.77,-581.811C1551.5,-569.835 1521.68,-554.491 1496.3,-541.428"/>
<polygon fill="black" stroke="black" points="1497.66,-538.193 1487.17,-536.73 1494.46,-544.418 1497.66,-538.193"/>
</g>
<!-- 15 &#45; Compound stmt\n  -->
<g id="node16" class="node"><title>15 &#45; Compound stmt\n </title>
<ellipse fill="lightblue" stroke="black" cx="1432" cy="-423" rx="92.4462" ry="26.7407"/>
<text text-anchor="middle" x="1432" y="-426.8" font-family="Times,serif" font-size="14.00">15 &#45; Compound stmt</text>
<text text-anchor="middle" x="1432" y="-411.8" font-family="Times,serif" font-size="14.00"> </text>
</g>
<!-- 14 &#45; Binary Operator\n=&#45;&gt;15 &#45; Compound stmt\n  -->
<g id="edge9" class="edge"><title>14 &#45; Binary Operator\n=&#45;&gt;15 &#45; Compound stmt\n </title>
<path fill="none" stroke="black" d="M1439.76,-486.073C1438.74,-477.911 1437.59,-468.744 1436.5,-460.011"/>
<polygon fill="black" stroke="black" points="1439.97,-459.534 1435.26,-450.046 1433.02,-460.403 1439.97,-459.534"/>
</g>
<!-- 15 &#45; Compound stmt\n &#45;&gt;16 &#45; CursorKind.IF_STMT -->
<g id="edge11" class="edge"><title>15 &#45; Compound stmt\n &#45;&gt;16 &#45; CursorKind.IF_STMT</title>
<path fill="none" stroke="black" d="M1371.58,-402.674C1332.08,-390.041 1280.81,-373.645 1242.02,-361.236"/>
<polygon fill="black" stroke="black" points="1243.03,-357.885 1232.44,-358.172 1240.9,-364.552 1243.03,-357.885"/>
</g>
<!-- 16 &#45; CursorKind.IF_STMT&#45;&gt;17 &#45; Compound stmt\n  -->
<g id="edge13" class="edge"><title>16 &#45; CursorKind.IF_STMT&#45;&gt;17 &#45; Compound stmt\n </title>
<path fill="none" stroke="black" d="M1158.38,-324.439C1142.87,-314.796 1122.89,-302.362 1104.83,-291.132"/>
<polygon fill="black" stroke="black" points="1106.49,-288.043 1096.15,-285.733 1102.8,-293.987 1106.49,-288.043"/>
</g>
<!-- 17 &#45; Compound stmt\n &#45;&gt;18 &#45; Subsystem\nint main -->
<g id="edge15" class="edge"><title>17 &#45; Compound stmt\n &#45;&gt;18 &#45; Subsystem\nint main</title>
<path fill="none" stroke="black" d="M1020.66,-236.186C1003.23,-225.075 982.369,-211.772 964.168,-200.165"/>
<polygon fill="black" stroke="black" points="965.786,-197.046 955.473,-194.62 962.022,-202.948 965.786,-197.046"/>
</g>
<!-- 18 &#45; Subsystem\nint main&#45;&gt;19 &#45; CursorKind.TRANSLATION_UNIT -->
<g id="edge19" class="edge"><title>18 &#45; Subsystem\nint main&#45;&gt;19 &#45; CursorKind.TRANSLATION_UNIT</title>
<path fill="none" stroke="black" d="M868.427,-152.38C858.713,-149.366 848.593,-146.428 839,-144 778.669,-128.732 710.085,-115.779 655.545,-106.501"/>
<polygon fill="black" stroke="black" points="655.972,-103.023 645.529,-104.811 654.808,-109.926 655.972,-103.023"/>
</g>
<!-- 20 &#45; XML -->
<g id="node21" class="node"><title>20 &#45; XML</title>
<ellipse fill="lightblue" stroke="black" cx="556" cy="-18" rx="47.169" ry="18"/>
<text text-anchor="middle" x="556" y="-14.3" font-family="Times,serif" font-size="14.00">20 &#45; XML</text>
</g>
<!-- 19 &#45; CursorKind.TRANSLATION_UNIT&#45;&gt;20 &#45; XML -->
<g id="edge20" class="edge"><title>19 &#45; CursorKind.TRANSLATION_UNIT&#45;&gt;20 &#45; XML</title>
<path fill="none" stroke="black" d="M556,-71.6966C556,-63.9827 556,-54.7125 556,-46.1124"/>
<polygon fill="black" stroke="black" points="559.5,-46.1043 556,-36.1043 552.5,-46.1044 559.5,-46.1043"/>
</g>
</g>
</svg>
