<?xml version="1.0" encoding="UTF-8" standalone="no"?>
<!DOCTYPE svg PUBLIC "-//W3C//DTD SVG 1.1//EN"
 "http://www.w3.org/Graphics/SVG/1.1/DTD/svg11.dtd">
<!-- Generated by graphviz version 2.36.0 (20140111.2315)
 -->
<!-- Title: simple Pages: 1 -->
<svg width="1207pt" height="728pt"
 viewBox="0.00 0.00 1207.00 728.00" xmlns="http://www.w3.org/2000/svg" xmlns:xlink="http://www.w3.org/1999/xlink">
<g id="graph0" class="graph" transform="scale(1 1) rotate(0) translate(4 724)">
<title>simple</title>
<polygon fill="white" stroke="none" points="-4,4 -4,-724 1203,-724 1203,4 -4,4"/>
<!-- 0 &#45; CursorKind.TYPEDEF_DECL -->
<g id="node1" class="node"><title>0 &#45; CursorKind.TYPEDEF_DECL</title>
<ellipse fill="lightblue" stroke="black" cx="132" cy="-549" rx="132.382" ry="18"/>
<text text-anchor="middle" x="132" y="-545.3" font-family="Times,serif" font-size="14.00">0 &#45; CursorKind.TYPEDEF_DECL</text>
</g>
<!-- 1 &#45; CursorKind.TYPEDEF_DECL -->
<g id="node2" class="node"><title>1 &#45; CursorKind.TYPEDEF_DECL</title>
<ellipse fill="lightblue" stroke="black" cx="415" cy="-549" rx="132.382" ry="18"/>
<text text-anchor="middle" x="415" y="-545.3" font-family="Times,serif" font-size="14.00">1 &#45; CursorKind.TYPEDEF_DECL</text>
</g>
<!-- 2 &#45; CursorKind.TYPE_REF -->
<g id="node3" class="node"><title>2 &#45; CursorKind.TYPE_REF</title>
<ellipse fill="lightblue" stroke="black" cx="698" cy="-459" rx="109.286" ry="18"/>
<text text-anchor="middle" x="698" y="-455.3" font-family="Times,serif" font-size="14.00">2 &#45; CursorKind.TYPE_REF</text>
</g>
<!-- 3 &#45; CursorKind.TYPEDEF_DECL -->
<g id="node4" class="node"><title>3 &#45; CursorKind.TYPEDEF_DECL</title>
<ellipse fill="lightblue" stroke="black" cx="698" cy="-549" rx="132.382" ry="18"/>
<text text-anchor="middle" x="698" y="-545.3" font-family="Times,serif" font-size="14.00">3 &#45; CursorKind.TYPEDEF_DECL</text>
</g>
<!-- 3 &#45; CursorKind.TYPEDEF_DECL&#45;&gt;2 &#45; CursorKind.TYPE_REF -->
<g id="edge1" class="edge"><title>3 &#45; CursorKind.TYPEDEF_DECL&#45;&gt;2 &#45; CursorKind.TYPE_REF</title>
<path fill="none" stroke="black" d="M698,-530.614C698,-518.24 698,-501.369 698,-487.22"/>
<polygon fill="black" stroke="black" points="701.5,-487.05 698,-477.05 694.5,-487.05 701.5,-487.05"/>
</g>
<!-- 4 &#45; Param\nint a -->
<g id="node5" class="node"><title>4 &#45; Param\nint a</title>
<ellipse fill="lightblue" stroke="black" cx="1136" cy="-207" rx="50.3073" ry="26.7407"/>
<text text-anchor="middle" x="1136" y="-210.8" font-family="Times,serif" font-size="14.00">4 &#45; Param</text>
<text text-anchor="middle" x="1136" y="-195.8" font-family="Times,serif" font-size="14.00">int a</text>
</g>
<!-- 14 &#45; Variable\na -->
<g id="node15" class="node"><title>14 &#45; Variable\na</title>
<ellipse fill="lightblue" stroke="black" cx="1136" cy="-117" rx="62.3993" ry="26.7407"/>
<text text-anchor="middle" x="1136" y="-120.8" font-family="Times,serif" font-size="14.00">14 &#45; Variable</text>
<text text-anchor="middle" x="1136" y="-105.8" font-family="Times,serif" font-size="14.00">a</text>
</g>
<!-- 4 &#45; Param\nint a&#45;&gt;14 &#45; Variable\na -->
<g id="edge13" class="edge"><title>4 &#45; Param\nint a&#45;&gt;14 &#45; Variable\na</title>
<path fill="none" stroke="black" d="M1136,-180.073C1136,-171.999 1136,-162.943 1136,-154.296"/>
<polygon fill="black" stroke="black" points="1139.5,-154.046 1136,-144.046 1132.5,-154.046 1139.5,-154.046"/>
</g>
<!-- 5 &#45; Constant\n1000 -->
<g id="node6" class="node"><title>5 &#45; Constant\n1000</title>
<ellipse fill="lightblue" stroke="black" cx="701" cy="-117" rx="58.5343" ry="26.7407"/>
<text text-anchor="middle" x="701" y="-120.8" font-family="Times,serif" font-size="14.00">5 &#45; Constant</text>
<text text-anchor="middle" x="701" y="-105.8" font-family="Times,serif" font-size="14.00">1000</text>
</g>
<!-- 15 &#45; Variable\nb -->
<g id="node16" class="node"><title>15 &#45; Variable\nb</title>
<ellipse fill="lightblue" stroke="black" cx="701" cy="-27" rx="62.3993" ry="26.7407"/>
<text text-anchor="middle" x="701" y="-30.8" font-family="Times,serif" font-size="14.00">15 &#45; Variable</text>
<text text-anchor="middle" x="701" y="-15.8" font-family="Times,serif" font-size="14.00">b</text>
</g>
<!-- 5 &#45; Constant\n1000&#45;&gt;15 &#45; Variable\nb -->
<g id="edge14" class="edge"><title>5 &#45; Constant\n1000&#45;&gt;15 &#45; Variable\nb</title>
<path fill="none" stroke="black" d="M701,-90.0731C701,-81.9993 701,-72.9428 701,-64.2961"/>
<polygon fill="black" stroke="black" points="704.5,-64.0457 701,-54.0457 697.5,-64.0458 704.5,-64.0457"/>
</g>
<!-- 6 &#45; Constant\n50 -->
<g id="node7" class="node"><title>6 &#45; Constant\n50</title>
<ellipse fill="lightblue" stroke="black" cx="1009" cy="-207" rx="58.5343" ry="26.7407"/>
<text text-anchor="middle" x="1009" y="-210.8" font-family="Times,serif" font-size="14.00">6 &#45; Constant</text>
<text text-anchor="middle" x="1009" y="-195.8" font-family="Times,serif" font-size="14.00">50</text>
</g>
<!-- 7 &#45; Binary Operator\n&gt; -->
<g id="node8" class="node"><title>7 &#45; Binary Operator\n&gt;</title>
<ellipse fill="lightblue" stroke="black" cx="1020" cy="-297" rx="87.5215" ry="26.7407"/>
<text text-anchor="middle" x="1020" y="-300.8" font-family="Times,serif" font-size="14.00">7 &#45; Binary Operator</text>
<text text-anchor="middle" x="1020" y="-285.8" font-family="Times,serif" font-size="14.00">&gt;</text>
</g>
<!-- 7 &#45; Binary Operator\n&gt;&#45;&gt;4 &#45; Param\nint a -->
<g id="edge2" class="edge"><title>7 &#45; Binary Operator\n&gt;&#45;&gt;4 &#45; Param\nint a</title>
<path fill="none" stroke="black" d="M1051.7,-271.954C1066.53,-260.704 1084.27,-247.246 1099.64,-235.585"/>
<polygon fill="black" stroke="black" points="1102.05,-238.149 1107.9,-229.316 1097.82,-232.572 1102.05,-238.149"/>
</g>
<!-- 7 &#45; Binary Operator\n&gt;&#45;&gt;6 &#45; Constant\n50 -->
<g id="edge3" class="edge"><title>7 &#45; Binary Operator\n&gt;&#45;&gt;6 &#45; Constant\n50</title>
<path fill="none" stroke="black" d="M1016.76,-270.073C1015.74,-261.911 1014.59,-252.744 1013.5,-244.011"/>
<polygon fill="black" stroke="black" points="1016.97,-243.534 1012.26,-234.046 1010.02,-244.403 1016.97,-243.534"/>
</g>
<!-- 8 &#45; Constant\n100 -->
<g id="node9" class="node"><title>8 &#45; Constant\n100</title>
<ellipse fill="lightblue" stroke="black" cx="836" cy="-117" rx="58.5343" ry="26.7407"/>
<text text-anchor="middle" x="836" y="-120.8" font-family="Times,serif" font-size="14.00">8 &#45; Constant</text>
<text text-anchor="middle" x="836" y="-105.8" font-family="Times,serif" font-size="14.00">100</text>
</g>
<!-- 9 &#45; Binary Operator\n= -->
<g id="node10" class="node"><title>9 &#45; Binary Operator\n=</title>
<ellipse fill="lightblue" stroke="black" cx="822" cy="-207" rx="87.5215" ry="26.7407"/>
<text text-anchor="middle" x="822" y="-210.8" font-family="Times,serif" font-size="14.00">9 &#45; Binary Operator</text>
<text text-anchor="middle" x="822" y="-195.8" font-family="Times,serif" font-size="14.00">=</text>
</g>
<!-- 9 &#45; Binary Operator\n=&#45;&gt;5 &#45; Constant\n1000 -->
<g id="edge4" class="edge"><title>9 &#45; Binary Operator\n=&#45;&gt;5 &#45; Constant\n1000</title>
<path fill="none" stroke="black" d="M788.936,-181.954C773.822,-170.962 755.81,-157.862 740.035,-146.389"/>
<polygon fill="black" stroke="black" points="741.679,-143.257 731.533,-140.206 737.562,-148.918 741.679,-143.257"/>
</g>
<!-- 9 &#45; Binary Operator\n=&#45;&gt;8 &#45; Constant\n100 -->
<g id="edge5" class="edge"><title>9 &#45; Binary Operator\n=&#45;&gt;8 &#45; Constant\n100</title>
<path fill="none" stroke="black" d="M826.125,-180.073C827.423,-171.911 828.882,-162.744 830.271,-154.011"/>
<polygon fill="black" stroke="black" points="833.742,-154.471 831.856,-144.046 826.829,-153.372 833.742,-154.471"/>
</g>
<!-- 10 &#45; Compound stmt\n  -->
<g id="node11" class="node"><title>10 &#45; Compound stmt\n </title>
<ellipse fill="lightblue" stroke="black" cx="822" cy="-297" rx="92.4462" ry="26.7407"/>
<text text-anchor="middle" x="822" y="-300.8" font-family="Times,serif" font-size="14.00">10 &#45; Compound stmt</text>
<text text-anchor="middle" x="822" y="-285.8" font-family="Times,serif" font-size="14.00"> </text>
</g>
<!-- 10 &#45; Compound stmt\n &#45;&gt;9 &#45; Binary Operator\n= -->
<g id="edge6" class="edge"><title>10 &#45; Compound stmt\n &#45;&gt;9 &#45; Binary Operator\n=</title>
<path fill="none" stroke="black" d="M822,-270.073C822,-261.999 822,-252.943 822,-244.296"/>
<polygon fill="black" stroke="black" points="825.5,-244.046 822,-234.046 818.5,-244.046 825.5,-244.046"/>
</g>
<!-- 11 &#45; CursorKind.IF_STMT -->
<g id="node12" class="node"><title>11 &#45; CursorKind.IF_STMT</title>
<ellipse fill="lightblue" stroke="black" cx="919" cy="-378" rx="107.361" ry="18"/>
<text text-anchor="middle" x="919" y="-374.3" font-family="Times,serif" font-size="14.00">11 &#45; CursorKind.IF_STMT</text>
</g>
<!-- 11 &#45; CursorKind.IF_STMT&#45;&gt;7 &#45; Binary Operator\n&gt; -->
<g id="edge7" class="edge"><title>11 &#45; CursorKind.IF_STMT&#45;&gt;7 &#45; Binary Operator\n&gt;</title>
<path fill="none" stroke="black" d="M940.42,-360.246C952.23,-351.008 967.261,-339.252 981.071,-328.45"/>
<polygon fill="black" stroke="black" points="983.307,-331.144 989.027,-322.226 978.994,-325.63 983.307,-331.144"/>
</g>
<!-- 11 &#45; CursorKind.IF_STMT&#45;&gt;10 &#45; Compound stmt\n  -->
<g id="edge8" class="edge"><title>11 &#45; CursorKind.IF_STMT&#45;&gt;10 &#45; Compound stmt\n </title>
<path fill="none" stroke="black" d="M898.429,-360.246C887.284,-351.169 873.154,-339.661 860.083,-329.016"/>
<polygon fill="black" stroke="black" points="862.082,-326.13 852.118,-322.529 857.662,-331.558 862.082,-326.13"/>
</g>
<!-- 12 &#45; Compound stmt\n  -->
<g id="node13" class="node"><title>12 &#45; Compound stmt\n </title>
<ellipse fill="lightblue" stroke="black" cx="919" cy="-459" rx="92.4462" ry="26.7407"/>
<text text-anchor="middle" x="919" y="-462.8" font-family="Times,serif" font-size="14.00">12 &#45; Compound stmt</text>
<text text-anchor="middle" x="919" y="-447.8" font-family="Times,serif" font-size="14.00"> </text>
</g>
<!-- 12 &#45; Compound stmt\n &#45;&gt;5 &#45; Constant\n1000 -->
<g id="edge9" class="edge"><title>12 &#45; Compound stmt\n &#45;&gt;5 &#45; Constant\n1000</title>
<path fill="none" stroke="black" d="M861.939,-437.713C814.066,-417.247 748.999,-380.512 720,-324 692.203,-269.831 692.889,-197.071 696.524,-154.095"/>
<polygon fill="black" stroke="black" points="700.012,-154.384 697.469,-144.099 693.043,-153.726 700.012,-154.384"/>
</g>
<!-- 12 &#45; Compound stmt\n &#45;&gt;11 &#45; CursorKind.IF_STMT -->
<g id="edge10" class="edge"><title>12 &#45; Compound stmt\n &#45;&gt;11 &#45; CursorKind.IF_STMT</title>
<path fill="none" stroke="black" d="M919,-431.694C919,-423.58 919,-414.626 919,-406.438"/>
<polygon fill="black" stroke="black" points="922.5,-406.248 919,-396.248 915.5,-406.248 922.5,-406.248"/>
</g>
<!-- 13 &#45; Subsystem\nint main -->
<g id="node14" class="node"><title>13 &#45; Subsystem\nint main</title>
<ellipse fill="lightblue" stroke="black" cx="920" cy="-549" rx="71.127" ry="26.7407"/>
<text text-anchor="middle" x="920" y="-552.8" font-family="Times,serif" font-size="14.00">13 &#45; Subsystem</text>
<text text-anchor="middle" x="920" y="-537.8" font-family="Times,serif" font-size="14.00">int main</text>
</g>
<!-- 13 &#45; Subsystem\nint main&#45;&gt;4 &#45; Param\nint a -->
<g id="edge11" class="edge"><title>13 &#45; Subsystem\nint main&#45;&gt;4 &#45; Param\nint a</title>
<path fill="none" stroke="black" d="M963.124,-527.285C982.086,-516.744 1003.7,-502.631 1020,-486 1078.58,-426.23 1087.08,-402.537 1116,-324 1125.49,-298.223 1130.53,-267.536 1133.17,-244.201"/>
<polygon fill="black" stroke="black" points="1136.68,-244.348 1134.23,-234.04 1129.72,-243.626 1136.68,-244.348"/>
</g>
<!-- 13 &#45; Subsystem\nint main&#45;&gt;12 &#45; Compound stmt\n  -->
<g id="edge12" class="edge"><title>13 &#45; Subsystem\nint main&#45;&gt;12 &#45; Compound stmt\n </title>
<path fill="none" stroke="black" d="M919.705,-522.073C919.614,-513.999 919.511,-504.943 919.412,-496.296"/>
<polygon fill="black" stroke="black" points="922.909,-496.005 919.296,-486.046 915.91,-496.085 922.909,-496.005"/>
</g>
<!-- 16 &#45; CursorKind.TRANSLATION_UNIT -->
<g id="node17" class="node"><title>16 &#45; CursorKind.TRANSLATION_UNIT</title>
<ellipse fill="lightblue" stroke="black" cx="556" cy="-630" rx="157.404" ry="18"/>
<text text-anchor="middle" x="556" y="-626.3" font-family="Times,serif" font-size="14.00">16 &#45; CursorKind.TRANSLATION_UNIT</text>
</g>
<!-- 16 &#45; CursorKind.TRANSLATION_UNIT&#45;&gt;0 &#45; CursorKind.TYPEDEF_DECL -->
<g id="edge15" class="edge"><title>16 &#45; CursorKind.TRANSLATION_UNIT&#45;&gt;0 &#45; CursorKind.TYPEDEF_DECL</title>
<path fill="none" stroke="black" d="M477.243,-614.326C403.212,-600.532 292.727,-579.947 216.792,-565.798"/>
<polygon fill="black" stroke="black" points="217.251,-562.324 206.779,-563.933 215.969,-569.205 217.251,-562.324"/>
</g>
<!-- 16 &#45; CursorKind.TRANSLATION_UNIT&#45;&gt;1 &#45; CursorKind.TYPEDEF_DECL -->
<g id="edge16" class="edge"><title>16 &#45; CursorKind.TRANSLATION_UNIT&#45;&gt;1 &#45; CursorKind.TYPEDEF_DECL</title>
<path fill="none" stroke="black" d="M526.098,-612.246C504.973,-600.411 476.473,-584.442 453.628,-571.642"/>
<polygon fill="black" stroke="black" points="455.294,-568.564 444.859,-566.73 451.873,-574.671 455.294,-568.564"/>
</g>
<!-- 16 &#45; CursorKind.TRANSLATION_UNIT&#45;&gt;3 &#45; CursorKind.TYPEDEF_DECL -->
<g id="edge17" class="edge"><title>16 &#45; CursorKind.TRANSLATION_UNIT&#45;&gt;3 &#45; CursorKind.TYPEDEF_DECL</title>
<path fill="none" stroke="black" d="M586.115,-612.246C607.388,-600.411 636.091,-584.442 659.098,-571.642"/>
<polygon fill="black" stroke="black" points="660.892,-574.65 667.929,-566.73 657.489,-568.533 660.892,-574.65"/>
</g>
<!-- 16 &#45; CursorKind.TRANSLATION_UNIT&#45;&gt;13 &#45; Subsystem\nint main -->
<g id="edge18" class="edge"><title>16 &#45; CursorKind.TRANSLATION_UNIT&#45;&gt;13 &#45; Subsystem\nint main</title>
<path fill="none" stroke="black" d="M645.529,-615.189C701.515,-605.824 774.914,-592.218 839,-576 845.445,-574.369 852.128,-572.507 858.766,-570.547"/>
<polygon fill="black" stroke="black" points="859.872,-573.87 868.427,-567.62 857.841,-567.17 859.872,-573.87"/>
</g>
<!-- 17 &#45; XML -->
<g id="node18" class="node"><title>17 &#45; XML</title>
<ellipse fill="lightblue" stroke="black" cx="556" cy="-702" rx="47.169" ry="18"/>
<text text-anchor="middle" x="556" y="-698.3" font-family="Times,serif" font-size="14.00">17 &#45; XML</text>
</g>
<!-- 17 &#45; XML&#45;&gt;16 &#45; CursorKind.TRANSLATION_UNIT -->
<g id="edge19" class="edge"><title>17 &#45; XML&#45;&gt;16 &#45; CursorKind.TRANSLATION_UNIT</title>
<path fill="none" stroke="black" d="M556,-683.697C556,-675.983 556,-666.712 556,-658.112"/>
<polygon fill="black" stroke="black" points="559.5,-658.104 556,-648.104 552.5,-658.104 559.5,-658.104"/>
</g>
</g>
</svg>
