<?xml version="1.0" encoding="UTF-8" standalone="no"?>
<!DOCTYPE svg PUBLIC "-//W3C//DTD SVG 1.1//EN"
 "http://www.w3.org/Graphics/SVG/1.1/DTD/svg11.dtd">
<!-- Generated by graphviz version 2.36.0 (20140111.2315)
 -->
<!-- Title: simple Pages: 1 -->
<svg width="366pt" height="242pt"
 viewBox="0.00 0.00 366.00 242.00" xmlns="http://www.w3.org/2000/svg" xmlns:xlink="http://www.w3.org/1999/xlink">
<g id="graph0" class="graph" transform="scale(1 1) rotate(0) translate(4 238)">
<title>simple</title>
<polygon fill="white" stroke="none" points="-4,4 -4,-238 362,-238 362,4 -4,4"/>
<!-- 0 &#45; Gain\nint a -->
<g id="node1" class="node"><title>0 &#45; Gain\nint a</title>
<ellipse fill="lightblue" stroke="black" cx="179" cy="-207" rx="43.263" ry="26.7407"/>
<text text-anchor="middle" x="179" y="-210.8" font-family="Times,serif" font-size="14.00">0 &#45; Gain</text>
<text text-anchor="middle" x="179" y="-195.8" font-family="Times,serif" font-size="14.00">int a</text>
</g>
<!-- 3 &#45; Operator\n+ -->
<g id="node4" class="node"><title>3 &#45; Operator\n+</title>
<ellipse fill="lightblue" stroke="black" cx="92" cy="-117" rx="58.5343" ry="26.7407"/>
<text text-anchor="middle" x="92" y="-120.8" font-family="Times,serif" font-size="14.00">3 &#45; Operator</text>
<text text-anchor="middle" x="92" y="-105.8" font-family="Times,serif" font-size="14.00">+</text>
</g>
<!-- 0 &#45; Gain\nint a&#45;&gt;3 &#45; Operator\n+ -->
<g id="edge1" class="edge"><title>0 &#45; Gain\nint a&#45;&gt;3 &#45; Operator\n+</title>
<path fill="none" stroke="black" d="M157.046,-183.794C146.64,-173.268 134.034,-160.517 122.7,-149.053"/>
<polygon fill="black" stroke="black" points="124.991,-146.392 115.472,-141.742 120.013,-151.314 124.991,-146.392"/>
</g>
<!-- 4 &#45; Operator\n= -->
<g id="node5" class="node"><title>4 &#45; Operator\n=</title>
<ellipse fill="lightblue" stroke="black" cx="135" cy="-27" rx="58.5343" ry="26.7407"/>
<text text-anchor="middle" x="135" y="-30.8" font-family="Times,serif" font-size="14.00">4 &#45; Operator</text>
<text text-anchor="middle" x="135" y="-15.8" font-family="Times,serif" font-size="14.00">=</text>
</g>
<!-- 0 &#45; Gain\nint a&#45;&gt;4 &#45; Operator\n= -->
<g id="edge3" class="edge"><title>0 &#45; Gain\nint a&#45;&gt;4 &#45; Operator\n=</title>
<path fill="none" stroke="black" d="M176.003,-179.874C172.928,-156.148 167.395,-120.331 159,-90 156.539,-81.1095 153.276,-71.7273 149.951,-63.0269"/>
<polygon fill="black" stroke="black" points="153.139,-61.5711 146.21,-53.5561 146.628,-64.1427 153.139,-61.5711"/>
</g>
<!-- 1 &#45; Constant\n1000 -->
<g id="node2" class="node"><title>1 &#45; Constant\n1000</title>
<ellipse fill="lightblue" stroke="black" cx="300" cy="-207" rx="58.5343" ry="26.7407"/>
<text text-anchor="middle" x="300" y="-210.8" font-family="Times,serif" font-size="14.00">1 &#45; Constant</text>
<text text-anchor="middle" x="300" y="-195.8" font-family="Times,serif" font-size="14.00">1000</text>
</g>
<!-- 2 &#45; Constant\n100 -->
<g id="node3" class="node"><title>2 &#45; Constant\n100</title>
<ellipse fill="lightblue" stroke="black" cx="58" cy="-207" rx="58.5343" ry="26.7407"/>
<text text-anchor="middle" x="58" y="-210.8" font-family="Times,serif" font-size="14.00">2 &#45; Constant</text>
<text text-anchor="middle" x="58" y="-195.8" font-family="Times,serif" font-size="14.00">100</text>
</g>
<!-- 2 &#45; Constant\n100&#45;&gt;3 &#45; Operator\n+ -->
<g id="edge2" class="edge"><title>2 &#45; Constant\n100&#45;&gt;3 &#45; Operator\n+</title>
<path fill="none" stroke="black" d="M68.0172,-180.073C71.2683,-171.659 74.9317,-162.177 78.3985,-153.204"/>
<polygon fill="black" stroke="black" points="81.7151,-154.331 82.0544,-143.742 75.1855,-151.808 81.7151,-154.331"/>
</g>
<!-- 3 &#45; Operator\n+&#45;&gt;4 &#45; Operator\n= -->
<g id="edge4" class="edge"><title>3 &#45; Operator\n+&#45;&gt;4 &#45; Operator\n=</title>
<path fill="none" stroke="black" d="M104.437,-90.5468C108.716,-81.7904 113.581,-71.8346 118.151,-62.4815"/>
<polygon fill="black" stroke="black" points="121.345,-63.9174 122.591,-53.396 115.056,-60.8442 121.345,-63.9174"/>
</g>
</g>
</svg>
