<?xml version="1.0" encoding="UTF-8" standalone="no"?>
<!DOCTYPE svg PUBLIC "-//W3C//DTD SVG 1.1//EN"
 "http://www.w3.org/Graphics/SVG/1.1/DTD/svg11.dtd">
<!-- Generated by graphviz version 2.36.0 (20140111.2315)
 -->
<!-- Title: simple Pages: 1 -->
<svg width="809pt" height="134pt"
 viewBox="0.00 0.00 809.00 134.00" xmlns="http://www.w3.org/2000/svg" xmlns:xlink="http://www.w3.org/1999/xlink">
<g id="graph0" class="graph" transform="scale(1 1) rotate(0) translate(4 130)">
<title>simple</title>
<polygon fill="white" stroke="none" points="-4,4 -4,-130 805,-130 805,4 -4,4"/>
<!-- 0 &#45; Constant\n Value = 3 -->
<g id="node1" class="node"><title>0 &#45; Constant\n Value = 3</title>
<ellipse fill="lightblue" stroke="black" cx="58" cy="-99" rx="58.5343" ry="26.7407"/>
<text text-anchor="middle" x="58" y="-102.8" font-family="Times,serif" font-size="14.00">0 &#45; Constant</text>
<text text-anchor="middle" x="58" y="-87.8" font-family="Times,serif" font-size="14.00"> Value = 3</text>
</g>
<!-- 2 &#45; &gt; -->
<g id="node3" class="node"><title>2 &#45; &gt;</title>
<ellipse fill="lightblue" stroke="black" cx="88" cy="-18" rx="28.3955" ry="18"/>
<text text-anchor="middle" x="88" y="-14.3" font-family="Times,serif" font-size="14.00">2 &#45; &gt;</text>
</g>
<!-- 0 &#45; Constant\n Value = 3&#45;&gt;2 &#45; &gt; -->
<g id="edge1" class="edge"><title>0 &#45; Constant\n Value = 3&#45;&gt;2 &#45; &gt;</title>
<path fill="none" stroke="black" d="M67.8231,-72.1324C71.0656,-63.5938 74.676,-54.0864 77.9363,-45.5011"/>
<polygon fill="black" stroke="black" points="81.2815,-46.5508 81.5596,-35.9596 74.7375,-44.0657 81.2815,-46.5508"/>
</g>
<!-- 1 &#45; Constant\n Value = 4 -->
<g id="node2" class="node"><title>1 &#45; Constant\n Value = 4</title>
<ellipse fill="lightblue" stroke="black" cx="193" cy="-99" rx="58.5343" ry="26.7407"/>
<text text-anchor="middle" x="193" y="-102.8" font-family="Times,serif" font-size="14.00">1 &#45; Constant</text>
<text text-anchor="middle" x="193" y="-87.8" font-family="Times,serif" font-size="14.00"> Value = 4</text>
</g>
<!-- 1 &#45; Constant\n Value = 4&#45;&gt;2 &#45; &gt; -->
<g id="edge2" class="edge"><title>1 &#45; Constant\n Value = 4&#45;&gt;2 &#45; &gt;</title>
<path fill="none" stroke="black" d="M163.472,-75.7839C147.855,-64.0337 128.859,-49.7418 113.832,-38.4358"/>
<polygon fill="black" stroke="black" points="115.594,-35.3812 105.499,-32.1658 111.386,-40.9749 115.594,-35.3812"/>
</g>
<!-- 5 &#45; &lt; -->
<g id="node6" class="node"><title>5 &#45; &lt;</title>
<ellipse fill="lightblue" stroke="black" cx="260" cy="-18" rx="28.3955" ry="18"/>
<text text-anchor="middle" x="260" y="-14.3" font-family="Times,serif" font-size="14.00">5 &#45; &lt;</text>
</g>
<!-- 1 &#45; Constant\n Value = 4&#45;&gt;5 &#45; &lt; -->
<g id="edge3" class="edge"><title>1 &#45; Constant\n Value = 4&#45;&gt;5 &#45; &lt;</title>
<path fill="none" stroke="black" d="M213.832,-73.437C222.355,-63.3873 232.161,-51.8249 240.538,-41.948"/>
<polygon fill="black" stroke="black" points="243.38,-44.0085 247.178,-34.1181 238.041,-39.4808 243.38,-44.0085"/>
</g>
<!-- 3 &#45; Constant\n Value = 1 -->
<g id="node4" class="node"><title>3 &#45; Constant\n Value = 1</title>
<ellipse fill="lightblue" stroke="black" cx="463" cy="-99" rx="58.5343" ry="26.7407"/>
<text text-anchor="middle" x="463" y="-102.8" font-family="Times,serif" font-size="14.00">3 &#45; Constant</text>
<text text-anchor="middle" x="463" y="-87.8" font-family="Times,serif" font-size="14.00"> Value = 1</text>
</g>
<!-- 8 &#45; + -->
<g id="node9" class="node"><title>8 &#45; +</title>
<ellipse fill="lightblue" stroke="black" cx="533" cy="-18" rx="28.3955" ry="18"/>
<text text-anchor="middle" x="533" y="-14.3" font-family="Times,serif" font-size="14.00">8 &#45; +</text>
</g>
<!-- 3 &#45; Constant\n Value = 1&#45;&gt;8 &#45; + -->
<g id="edge6" class="edge"><title>3 &#45; Constant\n Value = 1&#45;&gt;8 &#45; +</title>
<path fill="none" stroke="black" d="M484.383,-73.8681C493.393,-63.6997 503.829,-51.9215 512.717,-41.8905"/>
<polygon fill="black" stroke="black" points="515.444,-44.0904 519.457,-34.2847 510.205,-39.4481 515.444,-44.0904"/>
</g>
<!-- 4 &#45; Constant\n Value = 98 -->
<g id="node5" class="node"><title>4 &#45; Constant\n Value = 98</title>
<ellipse fill="lightblue" stroke="black" cx="328" cy="-99" rx="58.5343" ry="26.7407"/>
<text text-anchor="middle" x="328" y="-102.8" font-family="Times,serif" font-size="14.00">4 &#45; Constant</text>
<text text-anchor="middle" x="328" y="-87.8" font-family="Times,serif" font-size="14.00"> Value = 98</text>
</g>
<!-- 4 &#45; Constant\n Value = 98&#45;&gt;5 &#45; &lt; -->
<g id="edge4" class="edge"><title>4 &#45; Constant\n Value = 98&#45;&gt;5 &#45; &lt;</title>
<path fill="none" stroke="black" d="M307.228,-73.8681C298.476,-63.6997 288.337,-51.9215 279.703,-41.8905"/>
<polygon fill="black" stroke="black" points="282.333,-39.5804 273.156,-34.2847 277.027,-44.147 282.333,-39.5804"/>
</g>
<!-- 6 &#45; Constant\n Value = 34 -->
<g id="node7" class="node"><title>6 &#45; Constant\n Value = 34</title>
<ellipse fill="lightblue" stroke="black" cx="743" cy="-99" rx="58.5343" ry="26.7407"/>
<text text-anchor="middle" x="743" y="-102.8" font-family="Times,serif" font-size="14.00">6 &#45; Constant</text>
<text text-anchor="middle" x="743" y="-87.8" font-family="Times,serif" font-size="14.00"> Value = 34</text>
</g>
<!-- 7 &#45; Constant\n Value = 100 -->
<g id="node8" class="node"><title>7 &#45; Constant\n Value = 100</title>
<ellipse fill="lightblue" stroke="black" cx="603" cy="-99" rx="62.3993" ry="26.7407"/>
<text text-anchor="middle" x="603" y="-102.8" font-family="Times,serif" font-size="14.00">7 &#45; Constant</text>
<text text-anchor="middle" x="603" y="-87.8" font-family="Times,serif" font-size="14.00"> Value = 100</text>
</g>
<!-- 7 &#45; Constant\n Value = 100&#45;&gt;8 &#45; + -->
<g id="edge5" class="edge"><title>7 &#45; Constant\n Value = 100&#45;&gt;8 &#45; +</title>
<path fill="none" stroke="black" d="M581.235,-73.437C572.241,-63.2868 561.88,-51.5935 553.072,-41.6522"/>
<polygon fill="black" stroke="black" points="555.647,-39.2815 546.396,-34.1181 550.408,-43.9238 555.647,-39.2815"/>
</g>
</g>
</svg>
