<?xml version="1.0" encoding="UTF-8" standalone="no"?>
<!DOCTYPE svg PUBLIC "-//W3C//DTD SVG 1.1//EN"
 "http://www.w3.org/Graphics/SVG/1.1/DTD/svg11.dtd">
<!-- Generated by graphviz version 2.36.0 (20140111.2315)
 -->
<!-- Title: simple Pages: 1 -->
<svg width="3005pt" height="692pt"
 viewBox="0.00 0.00 3005.00 692.00" xmlns="http://www.w3.org/2000/svg" xmlns:xlink="http://www.w3.org/1999/xlink">
<g id="graph0" class="graph" transform="scale(1 1) rotate(0) translate(4 688)">
<title>simple</title>
<polygon fill="white" stroke="none" points="-4,4 -4,-688 3001,-688 3001,4 -4,4"/>
<!-- 0 &#45; None -->
<g id="node1" class="node"><title>0 &#45; None</title>
<ellipse fill="lightblue" stroke="black" cx="556" cy="-666" rx="42.3701" ry="18"/>
<text text-anchor="middle" x="556" y="-662.3" font-family="Times,serif" font-size="14.00">0 &#45; None</text>
</g>
<!-- 1 &#45; CursorKind.TRANSLATION_UNIT -->
<g id="node2" class="node"><title>1 &#45; CursorKind.TRANSLATION_UNIT</title>
<ellipse fill="lightblue" stroke="black" cx="556" cy="-594" rx="153.08" ry="18"/>
<text text-anchor="middle" x="556" y="-590.3" font-family="Times,serif" font-size="14.00">1 &#45; CursorKind.TRANSLATION_UNIT</text>
</g>
<!-- 0 &#45; None&#45;&gt;1 &#45; CursorKind.TRANSLATION_UNIT -->
<g id="edge1" class="edge"><title>0 &#45; None&#45;&gt;1 &#45; CursorKind.TRANSLATION_UNIT</title>
<path fill="none" stroke="black" d="M556,-647.697C556,-639.983 556,-630.712 556,-622.112"/>
<polygon fill="black" stroke="black" points="559.5,-622.104 556,-612.104 552.5,-622.104 559.5,-622.104"/>
</g>
<!-- 2 &#45; CursorKind.TYPEDEF_DECL -->
<g id="node3" class="node"><title>2 &#45; CursorKind.TYPEDEF_DECL</title>
<ellipse fill="lightblue" stroke="black" cx="132" cy="-522" rx="132.382" ry="18"/>
<text text-anchor="middle" x="132" y="-518.3" font-family="Times,serif" font-size="14.00">2 &#45; CursorKind.TYPEDEF_DECL</text>
</g>
<!-- 1 &#45; CursorKind.TRANSLATION_UNIT&#45;&gt;2 &#45; CursorKind.TYPEDEF_DECL -->
<g id="edge2" class="edge"><title>1 &#45; CursorKind.TRANSLATION_UNIT&#45;&gt;2 &#45; CursorKind.TYPEDEF_DECL</title>
<path fill="none" stroke="black" d="M471.216,-579.003C399.318,-567.133 296.443,-550.149 222.865,-538.001"/>
<polygon fill="black" stroke="black" points="223.12,-534.496 212.684,-536.32 221.98,-541.403 223.12,-534.496"/>
</g>
<!-- 3 &#45; CursorKind.TYPEDEF_DECL -->
<g id="node4" class="node"><title>3 &#45; CursorKind.TYPEDEF_DECL</title>
<ellipse fill="lightblue" stroke="black" cx="415" cy="-522" rx="132.382" ry="18"/>
<text text-anchor="middle" x="415" y="-518.3" font-family="Times,serif" font-size="14.00">3 &#45; CursorKind.TYPEDEF_DECL</text>
</g>
<!-- 1 &#45; CursorKind.TRANSLATION_UNIT&#45;&gt;3 &#45; CursorKind.TYPEDEF_DECL -->
<g id="edge3" class="edge"><title>1 &#45; CursorKind.TRANSLATION_UNIT&#45;&gt;3 &#45; CursorKind.TYPEDEF_DECL</title>
<path fill="none" stroke="black" d="M522.585,-576.411C503.006,-566.691 478.092,-554.322 457.171,-543.936"/>
<polygon fill="black" stroke="black" points="458.688,-540.782 448.175,-539.47 455.576,-547.052 458.688,-540.782"/>
</g>
<!-- 4 &#45; CursorKind.TYPEDEF_DECL -->
<g id="node5" class="node"><title>4 &#45; CursorKind.TYPEDEF_DECL</title>
<ellipse fill="lightblue" stroke="black" cx="698" cy="-522" rx="132.382" ry="18"/>
<text text-anchor="middle" x="698" y="-518.3" font-family="Times,serif" font-size="14.00">4 &#45; CursorKind.TYPEDEF_DECL</text>
</g>
<!-- 1 &#45; CursorKind.TRANSLATION_UNIT&#45;&gt;4 &#45; CursorKind.TYPEDEF_DECL -->
<g id="edge4" class="edge"><title>1 &#45; CursorKind.TRANSLATION_UNIT&#45;&gt;4 &#45; CursorKind.TYPEDEF_DECL</title>
<path fill="none" stroke="black" d="M589.652,-576.411C609.37,-566.691 634.461,-554.322 655.53,-543.936"/>
<polygon fill="black" stroke="black" points="657.168,-547.031 664.59,-539.47 654.073,-540.752 657.168,-547.031"/>
</g>
<!-- 6 &#45; CursorKind.FUNCTION_DECL -->
<g id="node7" class="node"><title>6 &#45; CursorKind.FUNCTION_DECL</title>
<ellipse fill="lightblue" stroke="black" cx="987" cy="-522" rx="138.157" ry="18"/>
<text text-anchor="middle" x="987" y="-518.3" font-family="Times,serif" font-size="14.00">6 &#45; CursorKind.FUNCTION_DECL</text>
</g>
<!-- 1 &#45; CursorKind.TRANSLATION_UNIT&#45;&gt;6 &#45; CursorKind.FUNCTION_DECL -->
<g id="edge6" class="edge"><title>1 &#45; CursorKind.TRANSLATION_UNIT&#45;&gt;6 &#45; CursorKind.FUNCTION_DECL</title>
<path fill="none" stroke="black" d="M641.925,-579.045C714.9,-567.193 819.406,-550.219 894.261,-538.062"/>
<polygon fill="black" stroke="black" points="894.849,-541.513 904.158,-536.455 893.726,-534.603 894.849,-541.513"/>
</g>
<!-- 5 &#45; CursorKind.TYPE_REF -->
<g id="node6" class="node"><title>5 &#45; CursorKind.TYPE_REF</title>
<ellipse fill="lightblue" stroke="black" cx="698" cy="-450" rx="109.286" ry="18"/>
<text text-anchor="middle" x="698" y="-446.3" font-family="Times,serif" font-size="14.00">5 &#45; CursorKind.TYPE_REF</text>
</g>
<!-- 4 &#45; CursorKind.TYPEDEF_DECL&#45;&gt;5 &#45; CursorKind.TYPE_REF -->
<g id="edge5" class="edge"><title>4 &#45; CursorKind.TYPEDEF_DECL&#45;&gt;5 &#45; CursorKind.TYPE_REF</title>
<path fill="none" stroke="black" d="M698,-503.697C698,-495.983 698,-486.712 698,-478.112"/>
<polygon fill="black" stroke="black" points="701.5,-478.104 698,-468.104 694.5,-478.104 701.5,-478.104"/>
</g>
<!-- 7 &#45; CursorKind.COMPOUND_STMT -->
<g id="node8" class="node"><title>7 &#45; CursorKind.COMPOUND_STMT</title>
<ellipse fill="lightblue" stroke="black" cx="987" cy="-450" rx="145.38" ry="18"/>
<text text-anchor="middle" x="987" y="-446.3" font-family="Times,serif" font-size="14.00">7 &#45; CursorKind.COMPOUND_STMT</text>
</g>
<!-- 6 &#45; CursorKind.FUNCTION_DECL&#45;&gt;7 &#45; CursorKind.COMPOUND_STMT -->
<g id="edge7" class="edge"><title>6 &#45; CursorKind.FUNCTION_DECL&#45;&gt;7 &#45; CursorKind.COMPOUND_STMT</title>
<path fill="none" stroke="black" d="M987,-503.697C987,-495.983 987,-486.712 987,-478.112"/>
<polygon fill="black" stroke="black" points="990.5,-478.104 987,-468.104 983.5,-478.104 990.5,-478.104"/>
</g>
<!-- 8 &#45; CursorKind.DECL_STMT -->
<g id="node9" class="node"><title>8 &#45; CursorKind.DECL_STMT</title>
<ellipse fill="lightblue" stroke="black" cx="713" cy="-378" rx="117.935" ry="18"/>
<text text-anchor="middle" x="713" y="-374.3" font-family="Times,serif" font-size="14.00">8 &#45; CursorKind.DECL_STMT</text>
</g>
<!-- 7 &#45; CursorKind.COMPOUND_STMT&#45;&gt;8 &#45; CursorKind.DECL_STMT -->
<g id="edge8" class="edge"><title>7 &#45; CursorKind.COMPOUND_STMT&#45;&gt;8 &#45; CursorKind.DECL_STMT</title>
<path fill="none" stroke="black" d="M926.53,-433.552C883.454,-422.547 825.516,-407.745 780.86,-396.337"/>
<polygon fill="black" stroke="black" points="781.524,-392.894 770.968,-393.809 779.791,-399.676 781.524,-392.894"/>
</g>
<!-- 11 &#45; CursorKind.DECL_STMT -->
<g id="node12" class="node"><title>11 &#45; CursorKind.DECL_STMT</title>
<ellipse fill="lightblue" stroke="black" cx="987" cy="-378" rx="122.284" ry="18"/>
<text text-anchor="middle" x="987" y="-374.3" font-family="Times,serif" font-size="14.00">11 &#45; CursorKind.DECL_STMT</text>
</g>
<!-- 7 &#45; CursorKind.COMPOUND_STMT&#45;&gt;11 &#45; CursorKind.DECL_STMT -->
<g id="edge11" class="edge"><title>7 &#45; CursorKind.COMPOUND_STMT&#45;&gt;11 &#45; CursorKind.DECL_STMT</title>
<path fill="none" stroke="black" d="M987,-431.697C987,-423.983 987,-414.712 987,-406.112"/>
<polygon fill="black" stroke="black" points="990.5,-406.104 987,-396.104 983.5,-406.104 990.5,-406.104"/>
</g>
<!-- 17 &#45; CursorKind.FOR_STMT -->
<g id="node18" class="node"><title>17 &#45; CursorKind.FOR_STMT</title>
<ellipse fill="lightblue" stroke="black" cx="1759" cy="-378" rx="116.01" ry="18"/>
<text text-anchor="middle" x="1759" y="-374.3" font-family="Times,serif" font-size="14.00">17 &#45; CursorKind.FOR_STMT</text>
</g>
<!-- 7 &#45; CursorKind.COMPOUND_STMT&#45;&gt;17 &#45; CursorKind.FOR_STMT -->
<g id="edge17" class="edge"><title>7 &#45; CursorKind.COMPOUND_STMT&#45;&gt;17 &#45; CursorKind.FOR_STMT</title>
<path fill="none" stroke="black" d="M1100.5,-438.709C1248.66,-425.274 1506.15,-401.926 1651.37,-388.76"/>
<polygon fill="black" stroke="black" points="1651.98,-392.218 1661.62,-387.829 1651.35,-385.247 1651.98,-392.218"/>
</g>
<!-- 9 &#45; CursorKind.VAR_DECL -->
<g id="node10" class="node"><title>9 &#45; CursorKind.VAR_DECL</title>
<ellipse fill="lightblue" stroke="black" cx="681" cy="-306" rx="112.16" ry="18"/>
<text text-anchor="middle" x="681" y="-302.3" font-family="Times,serif" font-size="14.00">9 &#45; CursorKind.VAR_DECL</text>
</g>
<!-- 8 &#45; CursorKind.DECL_STMT&#45;&gt;9 &#45; CursorKind.VAR_DECL -->
<g id="edge9" class="edge"><title>8 &#45; CursorKind.DECL_STMT&#45;&gt;9 &#45; CursorKind.VAR_DECL</title>
<path fill="none" stroke="black" d="M705.09,-359.697C701.447,-351.728 697.046,-342.1 693.006,-333.264"/>
<polygon fill="black" stroke="black" points="696.16,-331.744 688.819,-324.104 689.794,-334.654 696.16,-331.744"/>
</g>
<!-- 10 &#45; CursorKind.INTEGER_LITERAL -->
<g id="node11" class="node"><title>10 &#45; CursorKind.INTEGER_LITERAL</title>
<ellipse fill="lightblue" stroke="black" cx="664" cy="-234" rx="149.23" ry="18"/>
<text text-anchor="middle" x="664" y="-230.3" font-family="Times,serif" font-size="14.00">10 &#45; CursorKind.INTEGER_LITERAL</text>
</g>
<!-- 9 &#45; CursorKind.VAR_DECL&#45;&gt;10 &#45; CursorKind.INTEGER_LITERAL -->
<g id="edge10" class="edge"><title>9 &#45; CursorKind.VAR_DECL&#45;&gt;10 &#45; CursorKind.INTEGER_LITERAL</title>
<path fill="none" stroke="black" d="M676.798,-287.697C674.904,-279.898 672.623,-270.509 670.516,-261.829"/>
<polygon fill="black" stroke="black" points="673.915,-260.996 668.154,-252.104 667.113,-262.648 673.915,-260.996"/>
</g>
<!-- 12 &#45; CursorKind.VAR_DECL -->
<g id="node13" class="node"><title>12 &#45; CursorKind.VAR_DECL</title>
<ellipse fill="lightblue" stroke="black" cx="987" cy="-306" rx="116.484" ry="18"/>
<text text-anchor="middle" x="987" y="-302.3" font-family="Times,serif" font-size="14.00">12 &#45; CursorKind.VAR_DECL</text>
</g>
<!-- 11 &#45; CursorKind.DECL_STMT&#45;&gt;12 &#45; CursorKind.VAR_DECL -->
<g id="edge12" class="edge"><title>11 &#45; CursorKind.DECL_STMT&#45;&gt;12 &#45; CursorKind.VAR_DECL</title>
<path fill="none" stroke="black" d="M987,-359.697C987,-351.983 987,-342.712 987,-334.112"/>
<polygon fill="black" stroke="black" points="990.5,-334.104 987,-324.104 983.5,-334.104 990.5,-334.104"/>
</g>
<!-- 13 &#45; CursorKind.BINARY_OPERATOR -->
<g id="node14" class="node"><title>13 &#45; CursorKind.BINARY_OPERATOR</title>
<ellipse fill="lightblue" stroke="black" cx="987" cy="-234" rx="155.005" ry="18"/>
<text text-anchor="middle" x="987" y="-230.3" font-family="Times,serif" font-size="14.00">13 &#45; CursorKind.BINARY_OPERATOR</text>
</g>
<!-- 12 &#45; CursorKind.VAR_DECL&#45;&gt;13 &#45; CursorKind.BINARY_OPERATOR -->
<g id="edge13" class="edge"><title>12 &#45; CursorKind.VAR_DECL&#45;&gt;13 &#45; CursorKind.BINARY_OPERATOR</title>
<path fill="none" stroke="black" d="M987,-287.697C987,-279.983 987,-270.712 987,-262.112"/>
<polygon fill="black" stroke="black" points="990.5,-262.104 987,-252.104 983.5,-262.104 990.5,-262.104"/>
</g>
<!-- 14 &#45; CursorKind.UNEXPOSED_EXPR -->
<g id="node15" class="node"><title>14 &#45; CursorKind.UNEXPOSED_EXPR</title>
<ellipse fill="lightblue" stroke="black" cx="669" cy="-162" rx="150.205" ry="18"/>
<text text-anchor="middle" x="669" y="-158.3" font-family="Times,serif" font-size="14.00">14 &#45; CursorKind.UNEXPOSED_EXPR</text>
</g>
<!-- 13 &#45; CursorKind.BINARY_OPERATOR&#45;&gt;14 &#45; CursorKind.UNEXPOSED_EXPR -->
<g id="edge14" class="edge"><title>13 &#45; CursorKind.BINARY_OPERATOR&#45;&gt;14 &#45; CursorKind.UNEXPOSED_EXPR</title>
<path fill="none" stroke="black" d="M917.999,-217.811C867.717,-206.743 799.532,-191.733 747.226,-180.22"/>
<polygon fill="black" stroke="black" points="747.838,-176.771 737.32,-178.039 746.333,-183.607 747.838,-176.771"/>
</g>
<!-- 16 &#45; CursorKind.INTEGER_LITERAL -->
<g id="node17" class="node"><title>16 &#45; CursorKind.INTEGER_LITERAL</title>
<ellipse fill="lightblue" stroke="black" cx="987" cy="-162" rx="149.23" ry="18"/>
<text text-anchor="middle" x="987" y="-158.3" font-family="Times,serif" font-size="14.00">16 &#45; CursorKind.INTEGER_LITERAL</text>
</g>
<!-- 13 &#45; CursorKind.BINARY_OPERATOR&#45;&gt;16 &#45; CursorKind.INTEGER_LITERAL -->
<g id="edge16" class="edge"><title>13 &#45; CursorKind.BINARY_OPERATOR&#45;&gt;16 &#45; CursorKind.INTEGER_LITERAL</title>
<path fill="none" stroke="black" d="M987,-215.697C987,-207.983 987,-198.712 987,-190.112"/>
<polygon fill="black" stroke="black" points="990.5,-190.104 987,-180.104 983.5,-190.104 990.5,-190.104"/>
</g>
<!-- 15 &#45; CursorKind.DECL_REF_EXPR -->
<g id="node16" class="node"><title>15 &#45; CursorKind.DECL_REF_EXPR</title>
<ellipse fill="lightblue" stroke="black" cx="669" cy="-90" rx="141.531" ry="18"/>
<text text-anchor="middle" x="669" y="-86.3" font-family="Times,serif" font-size="14.00">15 &#45; CursorKind.DECL_REF_EXPR</text>
</g>
<!-- 14 &#45; CursorKind.UNEXPOSED_EXPR&#45;&gt;15 &#45; CursorKind.DECL_REF_EXPR -->
<g id="edge15" class="edge"><title>14 &#45; CursorKind.UNEXPOSED_EXPR&#45;&gt;15 &#45; CursorKind.DECL_REF_EXPR</title>
<path fill="none" stroke="black" d="M669,-143.697C669,-135.983 669,-126.712 669,-118.112"/>
<polygon fill="black" stroke="black" points="672.5,-118.104 669,-108.104 665.5,-118.104 672.5,-118.104"/>
</g>
<!-- 18 &#45; CursorKind.DECL_STMT -->
<g id="node19" class="node"><title>18 &#45; CursorKind.DECL_STMT</title>
<ellipse fill="lightblue" stroke="black" cx="1322" cy="-306" rx="122.284" ry="18"/>
<text text-anchor="middle" x="1322" y="-302.3" font-family="Times,serif" font-size="14.00">18 &#45; CursorKind.DECL_STMT</text>
</g>
<!-- 17 &#45; CursorKind.FOR_STMT&#45;&gt;18 &#45; CursorKind.DECL_STMT -->
<g id="edge18" class="edge"><title>17 &#45; CursorKind.FOR_STMT&#45;&gt;18 &#45; CursorKind.DECL_STMT</title>
<path fill="none" stroke="black" d="M1681.38,-364.566C1605.76,-352.453 1490.9,-334.054 1411.47,-321.332"/>
<polygon fill="black" stroke="black" points="1411.91,-317.858 1401.48,-319.732 1410.8,-324.769 1411.91,-317.858"/>
</g>
<!-- 21 &#45; CursorKind.BINARY_OPERATOR -->
<g id="node22" class="node"><title>21 &#45; CursorKind.BINARY_OPERATOR</title>
<ellipse fill="lightblue" stroke="black" cx="1759" cy="-306" rx="155.005" ry="18"/>
<text text-anchor="middle" x="1759" y="-302.3" font-family="Times,serif" font-size="14.00">21 &#45; CursorKind.BINARY_OPERATOR</text>
</g>
<!-- 17 &#45; CursorKind.FOR_STMT&#45;&gt;21 &#45; CursorKind.BINARY_OPERATOR -->
<g id="edge21" class="edge"><title>17 &#45; CursorKind.FOR_STMT&#45;&gt;21 &#45; CursorKind.BINARY_OPERATOR</title>
<path fill="none" stroke="black" d="M1759,-359.697C1759,-351.983 1759,-342.712 1759,-334.112"/>
<polygon fill="black" stroke="black" points="1762.5,-334.104 1759,-324.104 1755.5,-334.104 1762.5,-334.104"/>
</g>
<!-- 25 &#45; CursorKind.UNARY_OPERATOR -->
<g id="node26" class="node"><title>25 &#45; CursorKind.UNARY_OPERATOR</title>
<ellipse fill="lightblue" stroke="black" cx="2156" cy="-306" rx="153.08" ry="18"/>
<text text-anchor="middle" x="2156" y="-302.3" font-family="Times,serif" font-size="14.00">25 &#45; CursorKind.UNARY_OPERATOR</text>
</g>
<!-- 17 &#45; CursorKind.FOR_STMT&#45;&gt;25 &#45; CursorKind.UNARY_OPERATOR -->
<g id="edge25" class="edge"><title>17 &#45; CursorKind.FOR_STMT&#45;&gt;25 &#45; CursorKind.UNARY_OPERATOR</title>
<path fill="none" stroke="black" d="M1832.74,-363.998C1898.25,-352.447 1994.24,-335.522 2064.6,-323.115"/>
<polygon fill="black" stroke="black" points="2065.55,-326.502 2074.79,-321.319 2064.34,-319.608 2065.55,-326.502"/>
</g>
<!-- 27 &#45; CursorKind.COMPOUND_STMT -->
<g id="node28" class="node"><title>27 &#45; CursorKind.COMPOUND_STMT</title>
<ellipse fill="lightblue" stroke="black" cx="2513" cy="-306" rx="150.205" ry="18"/>
<text text-anchor="middle" x="2513" y="-302.3" font-family="Times,serif" font-size="14.00">27 &#45; CursorKind.COMPOUND_STMT</text>
</g>
<!-- 17 &#45; CursorKind.FOR_STMT&#45;&gt;27 &#45; CursorKind.COMPOUND_STMT -->
<g id="edge27" class="edge"><title>17 &#45; CursorKind.FOR_STMT&#45;&gt;27 &#45; CursorKind.COMPOUND_STMT</title>
<path fill="none" stroke="black" d="M1856.03,-367.992C1991.82,-355.385 2238.63,-332.472 2388.02,-318.603"/>
<polygon fill="black" stroke="black" points="2388.53,-322.071 2398.16,-317.661 2387.88,-315.101 2388.53,-322.071"/>
</g>
<!-- 19 &#45; CursorKind.VAR_DECL -->
<g id="node20" class="node"><title>19 &#45; CursorKind.VAR_DECL</title>
<ellipse fill="lightblue" stroke="black" cx="1304" cy="-234" rx="116.484" ry="18"/>
<text text-anchor="middle" x="1304" y="-230.3" font-family="Times,serif" font-size="14.00">19 &#45; CursorKind.VAR_DECL</text>
</g>
<!-- 18 &#45; CursorKind.DECL_STMT&#45;&gt;19 &#45; CursorKind.VAR_DECL -->
<g id="edge19" class="edge"><title>18 &#45; CursorKind.DECL_STMT&#45;&gt;19 &#45; CursorKind.VAR_DECL</title>
<path fill="none" stroke="black" d="M1317.55,-287.697C1315.55,-279.898 1313.13,-270.509 1310.9,-261.829"/>
<polygon fill="black" stroke="black" points="1314.28,-260.918 1308.4,-252.104 1307.5,-262.661 1314.28,-260.918"/>
</g>
<!-- 20 &#45; CursorKind.INTEGER_LITERAL -->
<g id="node21" class="node"><title>20 &#45; CursorKind.INTEGER_LITERAL</title>
<ellipse fill="lightblue" stroke="black" cx="1304" cy="-162" rx="149.23" ry="18"/>
<text text-anchor="middle" x="1304" y="-158.3" font-family="Times,serif" font-size="14.00">20 &#45; CursorKind.INTEGER_LITERAL</text>
</g>
<!-- 19 &#45; CursorKind.VAR_DECL&#45;&gt;20 &#45; CursorKind.INTEGER_LITERAL -->
<g id="edge20" class="edge"><title>19 &#45; CursorKind.VAR_DECL&#45;&gt;20 &#45; CursorKind.INTEGER_LITERAL</title>
<path fill="none" stroke="black" d="M1304,-215.697C1304,-207.983 1304,-198.712 1304,-190.112"/>
<polygon fill="black" stroke="black" points="1307.5,-190.104 1304,-180.104 1300.5,-190.104 1307.5,-190.104"/>
</g>
<!-- 22 &#45; CursorKind.UNEXPOSED_EXPR -->
<g id="node23" class="node"><title>22 &#45; CursorKind.UNEXPOSED_EXPR</title>
<ellipse fill="lightblue" stroke="black" cx="1589" cy="-234" rx="150.205" ry="18"/>
<text text-anchor="middle" x="1589" y="-230.3" font-family="Times,serif" font-size="14.00">22 &#45; CursorKind.UNEXPOSED_EXPR</text>
</g>
<!-- 21 &#45; CursorKind.BINARY_OPERATOR&#45;&gt;22 &#45; CursorKind.UNEXPOSED_EXPR -->
<g id="edge22" class="edge"><title>21 &#45; CursorKind.BINARY_OPERATOR&#45;&gt;22 &#45; CursorKind.UNEXPOSED_EXPR</title>
<path fill="none" stroke="black" d="M1719.14,-288.588C1695.04,-278.663 1664.11,-265.927 1638.45,-255.363"/>
<polygon fill="black" stroke="black" points="1639.48,-252.001 1628.9,-251.43 1636.82,-258.474 1639.48,-252.001"/>
</g>
<!-- 24 &#45; CursorKind.INTEGER_LITERAL -->
<g id="node25" class="node"><title>24 &#45; CursorKind.INTEGER_LITERAL</title>
<ellipse fill="lightblue" stroke="black" cx="1907" cy="-234" rx="149.23" ry="18"/>
<text text-anchor="middle" x="1907" y="-230.3" font-family="Times,serif" font-size="14.00">24 &#45; CursorKind.INTEGER_LITERAL</text>
</g>
<!-- 21 &#45; CursorKind.BINARY_OPERATOR&#45;&gt;24 &#45; CursorKind.INTEGER_LITERAL -->
<g id="edge24" class="edge"><title>21 &#45; CursorKind.BINARY_OPERATOR&#45;&gt;24 &#45; CursorKind.INTEGER_LITERAL</title>
<path fill="none" stroke="black" d="M1794.07,-288.411C1814.64,-278.683 1840.82,-266.301 1862.79,-255.909"/>
<polygon fill="black" stroke="black" points="1864.38,-259.031 1871.92,-251.591 1861.39,-252.703 1864.38,-259.031"/>
</g>
<!-- 23 &#45; CursorKind.DECL_REF_EXPR -->
<g id="node24" class="node"><title>23 &#45; CursorKind.DECL_REF_EXPR</title>
<ellipse fill="lightblue" stroke="black" cx="1613" cy="-162" rx="141.531" ry="18"/>
<text text-anchor="middle" x="1613" y="-158.3" font-family="Times,serif" font-size="14.00">23 &#45; CursorKind.DECL_REF_EXPR</text>
</g>
<!-- 22 &#45; CursorKind.UNEXPOSED_EXPR&#45;&gt;23 &#45; CursorKind.DECL_REF_EXPR -->
<g id="edge23" class="edge"><title>22 &#45; CursorKind.UNEXPOSED_EXPR&#45;&gt;23 &#45; CursorKind.DECL_REF_EXPR</title>
<path fill="none" stroke="black" d="M1594.93,-215.697C1597.61,-207.898 1600.83,-198.509 1603.8,-189.829"/>
<polygon fill="black" stroke="black" points="1607.2,-190.699 1607.14,-180.104 1600.58,-188.429 1607.2,-190.699"/>
</g>
<!-- 26 &#45; CursorKind.DECL_REF_EXPR -->
<g id="node27" class="node"><title>26 &#45; CursorKind.DECL_REF_EXPR</title>
<ellipse fill="lightblue" stroke="black" cx="2216" cy="-234" rx="141.531" ry="18"/>
<text text-anchor="middle" x="2216" y="-230.3" font-family="Times,serif" font-size="14.00">26 &#45; CursorKind.DECL_REF_EXPR</text>
</g>
<!-- 25 &#45; CursorKind.UNARY_OPERATOR&#45;&gt;26 &#45; CursorKind.DECL_REF_EXPR -->
<g id="edge26" class="edge"><title>25 &#45; CursorKind.UNARY_OPERATOR&#45;&gt;26 &#45; CursorKind.DECL_REF_EXPR</title>
<path fill="none" stroke="black" d="M2170.52,-288.055C2177.71,-279.668 2186.53,-269.376 2194.49,-260.096"/>
<polygon fill="black" stroke="black" points="2197.34,-262.146 2201.19,-252.275 2192.03,-257.59 2197.34,-262.146"/>
</g>
<!-- 28 &#45; CursorKind.BINARY_OPERATOR -->
<g id="node29" class="node"><title>28 &#45; CursorKind.BINARY_OPERATOR</title>
<ellipse fill="lightblue" stroke="black" cx="2531" cy="-234" rx="155.005" ry="18"/>
<text text-anchor="middle" x="2531" y="-230.3" font-family="Times,serif" font-size="14.00">28 &#45; CursorKind.BINARY_OPERATOR</text>
</g>
<!-- 27 &#45; CursorKind.COMPOUND_STMT&#45;&gt;28 &#45; CursorKind.BINARY_OPERATOR -->
<g id="edge28" class="edge"><title>27 &#45; CursorKind.COMPOUND_STMT&#45;&gt;28 &#45; CursorKind.BINARY_OPERATOR</title>
<path fill="none" stroke="black" d="M2517.45,-287.697C2519.45,-279.898 2521.87,-270.509 2524.1,-261.829"/>
<polygon fill="black" stroke="black" points="2527.5,-262.661 2526.6,-252.104 2520.72,-260.918 2527.5,-262.661"/>
</g>
<!-- 29 &#45; CursorKind.DECL_REF_EXPR -->
<g id="node30" class="node"><title>29 &#45; CursorKind.DECL_REF_EXPR</title>
<ellipse fill="lightblue" stroke="black" cx="2373" cy="-162" rx="141.531" ry="18"/>
<text text-anchor="middle" x="2373" y="-158.3" font-family="Times,serif" font-size="14.00">29 &#45; CursorKind.DECL_REF_EXPR</text>
</g>
<!-- 28 &#45; CursorKind.BINARY_OPERATOR&#45;&gt;29 &#45; CursorKind.DECL_REF_EXPR -->
<g id="edge29" class="edge"><title>28 &#45; CursorKind.BINARY_OPERATOR&#45;&gt;29 &#45; CursorKind.DECL_REF_EXPR</title>
<path fill="none" stroke="black" d="M2493.56,-216.411C2471.42,-206.604 2443.2,-194.1 2419.63,-183.657"/>
<polygon fill="black" stroke="black" points="2420.74,-180.321 2410.18,-179.47 2417.9,-186.721 2420.74,-180.321"/>
</g>
<!-- 30 &#45; CursorKind.BINARY_OPERATOR -->
<g id="node31" class="node"><title>30 &#45; CursorKind.BINARY_OPERATOR</title>
<ellipse fill="lightblue" stroke="black" cx="2688" cy="-162" rx="155.005" ry="18"/>
<text text-anchor="middle" x="2688" y="-158.3" font-family="Times,serif" font-size="14.00">30 &#45; CursorKind.BINARY_OPERATOR</text>
</g>
<!-- 28 &#45; CursorKind.BINARY_OPERATOR&#45;&gt;30 &#45; CursorKind.BINARY_OPERATOR -->
<g id="edge30" class="edge"><title>28 &#45; CursorKind.BINARY_OPERATOR&#45;&gt;30 &#45; CursorKind.BINARY_OPERATOR</title>
<path fill="none" stroke="black" d="M2568.21,-216.411C2590.12,-206.639 2618.04,-194.191 2641.42,-183.77"/>
<polygon fill="black" stroke="black" points="2643.08,-186.86 2650.79,-179.591 2640.23,-180.467 2643.08,-186.86"/>
</g>
<!-- 31 &#45; CursorKind.UNEXPOSED_EXPR -->
<g id="node32" class="node"><title>31 &#45; CursorKind.UNEXPOSED_EXPR</title>
<ellipse fill="lightblue" stroke="black" cx="2529" cy="-90" rx="150.205" ry="18"/>
<text text-anchor="middle" x="2529" y="-86.3" font-family="Times,serif" font-size="14.00">31 &#45; CursorKind.UNEXPOSED_EXPR</text>
</g>
<!-- 30 &#45; CursorKind.BINARY_OPERATOR&#45;&gt;31 &#45; CursorKind.UNEXPOSED_EXPR -->
<g id="edge31" class="edge"><title>30 &#45; CursorKind.BINARY_OPERATOR&#45;&gt;31 &#45; CursorKind.UNEXPOSED_EXPR</title>
<path fill="none" stroke="black" d="M2650.32,-144.411C2627.94,-134.56 2599.39,-121.989 2575.6,-111.518"/>
<polygon fill="black" stroke="black" points="2576.97,-108.296 2566.41,-107.47 2574.15,-114.703 2576.97,-108.296"/>
</g>
<!-- 33 &#45; CursorKind.UNEXPOSED_EXPR -->
<g id="node34" class="node"><title>33 &#45; CursorKind.UNEXPOSED_EXPR</title>
<ellipse fill="lightblue" stroke="black" cx="2847" cy="-90" rx="150.205" ry="18"/>
<text text-anchor="middle" x="2847" y="-86.3" font-family="Times,serif" font-size="14.00">33 &#45; CursorKind.UNEXPOSED_EXPR</text>
</g>
<!-- 30 &#45; CursorKind.BINARY_OPERATOR&#45;&gt;33 &#45; CursorKind.UNEXPOSED_EXPR -->
<g id="edge33" class="edge"><title>30 &#45; CursorKind.BINARY_OPERATOR&#45;&gt;33 &#45; CursorKind.UNEXPOSED_EXPR</title>
<path fill="none" stroke="black" d="M2725.68,-144.411C2748.06,-134.56 2776.61,-121.989 2800.4,-111.518"/>
<polygon fill="black" stroke="black" points="2801.85,-114.703 2809.59,-107.47 2799.03,-108.296 2801.85,-114.703"/>
</g>
<!-- 32 &#45; CursorKind.DECL_REF_EXPR -->
<g id="node33" class="node"><title>32 &#45; CursorKind.DECL_REF_EXPR</title>
<ellipse fill="lightblue" stroke="black" cx="2529" cy="-18" rx="141.531" ry="18"/>
<text text-anchor="middle" x="2529" y="-14.3" font-family="Times,serif" font-size="14.00">32 &#45; CursorKind.DECL_REF_EXPR</text>
</g>
<!-- 31 &#45; CursorKind.UNEXPOSED_EXPR&#45;&gt;32 &#45; CursorKind.DECL_REF_EXPR -->
<g id="edge32" class="edge"><title>31 &#45; CursorKind.UNEXPOSED_EXPR&#45;&gt;32 &#45; CursorKind.DECL_REF_EXPR</title>
<path fill="none" stroke="black" d="M2529,-71.6966C2529,-63.9827 2529,-54.7125 2529,-46.1124"/>
<polygon fill="black" stroke="black" points="2532.5,-46.1043 2529,-36.1043 2525.5,-46.1044 2532.5,-46.1043"/>
</g>
<!-- 34 &#45; CursorKind.DECL_REF_EXPR -->
<g id="node35" class="node"><title>34 &#45; CursorKind.DECL_REF_EXPR</title>
<ellipse fill="lightblue" stroke="black" cx="2847" cy="-18" rx="141.531" ry="18"/>
<text text-anchor="middle" x="2847" y="-14.3" font-family="Times,serif" font-size="14.00">34 &#45; CursorKind.DECL_REF_EXPR</text>
</g>
<!-- 33 &#45; CursorKind.UNEXPOSED_EXPR&#45;&gt;34 &#45; CursorKind.DECL_REF_EXPR -->
<g id="edge34" class="edge"><title>33 &#45; CursorKind.UNEXPOSED_EXPR&#45;&gt;34 &#45; CursorKind.DECL_REF_EXPR</title>
<path fill="none" stroke="black" d="M2847,-71.6966C2847,-63.9827 2847,-54.7125 2847,-46.1124"/>
<polygon fill="black" stroke="black" points="2850.5,-46.1043 2847,-36.1043 2843.5,-46.1044 2850.5,-46.1043"/>
</g>
</g>
</svg>
