<?xml version="1.0" encoding="UTF-8" standalone="no"?>
<!DOCTYPE svg PUBLIC "-//W3C//DTD SVG 1.1//EN"
 "http://www.w3.org/Graphics/SVG/1.1/DTD/svg11.dtd">
<!-- Generated by graphviz version 2.36.0 (20140111.2315)
 -->
<!-- Title: simple Pages: 1 -->
<svg width="299pt" height="224pt"
 viewBox="0.00 0.00 299.00 224.00" xmlns="http://www.w3.org/2000/svg" xmlns:xlink="http://www.w3.org/1999/xlink">
<g id="graph0" class="graph" transform="scale(1 1) rotate(0) translate(4 220)">
<title>simple</title>
<polygon fill="white" stroke="none" points="-4,4 -4,-220 295,-220 295,4 -4,4"/>
<!-- 0 &#45; Constant\n Value = 4.5 -->
<g id="node1" class="node"><title>0 &#45; Constant\n Value = 4.5</title>
<ellipse fill="lightblue" stroke="black" cx="60" cy="-189" rx="60.2186" ry="26.7407"/>
<text text-anchor="middle" x="60" y="-192.8" font-family="Times,serif" font-size="14.00">0 &#45; Constant</text>
<text text-anchor="middle" x="60" y="-177.8" font-family="Times,serif" font-size="14.00"> Value = 4.5</text>
</g>
<!-- 2 &#45; * -->
<g id="node3" class="node"><title>2 &#45; *</title>
<ellipse fill="lightblue" stroke="black" cx="129" cy="-99" rx="26.949" ry="18"/>
<text text-anchor="middle" x="129" y="-95.3" font-family="Times,serif" font-size="14.00">2 &#45; *</text>
</g>
<!-- 0 &#45; Constant\n Value = 4.5&#45;&gt;2 &#45; * -->
<g id="edge1" class="edge"><title>0 &#45; Constant\n Value = 4.5&#45;&gt;2 &#45; *</title>
<path fill="none" stroke="black" d="M79.2203,-163.487C89.0697,-150.926 101.001,-135.709 110.714,-123.322"/>
<polygon fill="black" stroke="black" points="113.614,-125.295 117.03,-115.266 108.106,-120.975 113.614,-125.295"/>
</g>
<!-- 1 &#45; Constant\n Value = 3 -->
<g id="node2" class="node"><title>1 &#45; Constant\n Value = 3</title>
<ellipse fill="lightblue" stroke="black" cx="198" cy="-189" rx="58.5343" ry="26.7407"/>
<text text-anchor="middle" x="198" y="-192.8" font-family="Times,serif" font-size="14.00">1 &#45; Constant</text>
<text text-anchor="middle" x="198" y="-177.8" font-family="Times,serif" font-size="14.00"> Value = 3</text>
</g>
<!-- 1 &#45; Constant\n Value = 3&#45;&gt;2 &#45; * -->
<g id="edge2" class="edge"><title>1 &#45; Constant\n Value = 3&#45;&gt;2 &#45; *</title>
<path fill="none" stroke="black" d="M178.78,-163.487C168.93,-150.926 156.999,-135.709 147.286,-123.322"/>
<polygon fill="black" stroke="black" points="149.894,-120.975 140.97,-115.266 144.386,-125.295 149.894,-120.975"/>
</g>
<!-- 4 &#45; / -->
<g id="node5" class="node"><title>4 &#45; /</title>
<ellipse fill="lightblue" stroke="black" cx="181" cy="-18" rx="27" ry="18"/>
<text text-anchor="middle" x="181" y="-14.3" font-family="Times,serif" font-size="14.00">4 &#45; /</text>
</g>
<!-- 2 &#45; *&#45;&gt;4 &#45; / -->
<g id="edge3" class="edge"><title>2 &#45; *&#45;&gt;4 &#45; /</title>
<path fill="none" stroke="black" d="M139.523,-82.0132C146.83,-70.9114 156.702,-55.9136 164.982,-43.3349"/>
<polygon fill="black" stroke="black" points="168.096,-44.9707 170.67,-34.6934 162.248,-41.122 168.096,-44.9707"/>
</g>
<!-- 3 &#45; Constant\n Value = 2 -->
<g id="node4" class="node"><title>3 &#45; Constant\n Value = 2</title>
<ellipse fill="lightblue" stroke="black" cx="233" cy="-99" rx="58.5343" ry="26.7407"/>
<text text-anchor="middle" x="233" y="-102.8" font-family="Times,serif" font-size="14.00">3 &#45; Constant</text>
<text text-anchor="middle" x="233" y="-87.8" font-family="Times,serif" font-size="14.00"> Value = 2</text>
</g>
<!-- 3 &#45; Constant\n Value = 2&#45;&gt;4 &#45; / -->
<g id="edge4" class="edge"><title>3 &#45; Constant\n Value = 2&#45;&gt;4 &#45; /</title>
<path fill="none" stroke="black" d="M216.547,-73.0039C210.324,-63.5492 203.253,-52.807 197.065,-43.407"/>
<polygon fill="black" stroke="black" points="199.882,-41.3204 191.46,-34.8918 194.035,-45.1691 199.882,-41.3204"/>
</g>
</g>
</svg>
